G04 #@! TF.GenerationSoftware,KiCad,Pcbnew,(5.1.2)-2*
G04 #@! TF.CreationDate,2020-01-06T22:07:24+01:00*
G04 #@! TF.ProjectId,psu,7073752e-6b69-4636-9164-5f7063625858,rev?*
G04 #@! TF.SameCoordinates,Original*
G04 #@! TF.FileFunction,Copper,L1,Top*
G04 #@! TF.FilePolarity,Positive*
%FSLAX46Y46*%
G04 Gerber Fmt 4.6, Leading zero omitted, Abs format (unit mm)*
G04 Created by KiCad (PCBNEW (5.1.2)-2) date 2020-01-06 22:07:24*
%MOMM*%
%LPD*%
G04 APERTURE LIST*
%ADD10C,5.000000*%
%ADD11R,2.000000X2.000000*%
%ADD12C,2.000000*%
%ADD13R,0.750000X1.200000*%
%ADD14R,2.700000X3.750000*%
%ADD15C,2.532420*%
%ADD16C,0.100000*%
%ADD17O,3.600000X2.000000*%
%ADD18O,2.000000X3.600000*%
%ADD19C,1.850000*%
%ADD20R,1.850000X1.850000*%
%ADD21R,2.500000X2.400000*%
%ADD22R,0.900000X1.200000*%
%ADD23R,1.200000X0.900000*%
%ADD24O,1.800000X1.800000*%
%ADD25R,1.800000X1.800000*%
%ADD26C,2.000000*%
%ADD27C,0.500000*%
G04 APERTURE END LIST*
D10*
X24000000Y-66000000D03*
X86000000Y-66000000D03*
X86000000Y-24000000D03*
X24000000Y-24000000D03*
D11*
X53500000Y-38500000D03*
D12*
X48500000Y-38500000D03*
D11*
X54172144Y-40500000D03*
D12*
X47827856Y-36500000D03*
X47827856Y-49500000D03*
D11*
X54172144Y-53500000D03*
D12*
X48500000Y-51500000D03*
D11*
X53500000Y-51500000D03*
D13*
X80500000Y-54950000D03*
X80500000Y-53050000D03*
X68000000Y-53050000D03*
X68000000Y-54950000D03*
D14*
X74000000Y-61775000D03*
X74000000Y-54225000D03*
X61500000Y-54225000D03*
X61500000Y-61775000D03*
D15*
X54500000Y-29200000D03*
D16*
G36*
X56300000Y-31350000D02*
G01*
X52700000Y-31350000D01*
X53700000Y-27050000D01*
X55300000Y-27050000D01*
X56300000Y-31350000D01*
X56300000Y-31350000D01*
G37*
D15*
X54500000Y-22800000D03*
D16*
G36*
X52700000Y-20650000D02*
G01*
X56300000Y-20650000D01*
X55300000Y-24950000D01*
X53700000Y-24950000D01*
X52700000Y-20650000D01*
X52700000Y-20650000D01*
G37*
D15*
X47500000Y-29200000D03*
D16*
G36*
X49300000Y-31350000D02*
G01*
X45700000Y-31350000D01*
X46700000Y-27050000D01*
X48300000Y-27050000D01*
X49300000Y-31350000D01*
X49300000Y-31350000D01*
G37*
D15*
X47500000Y-22800000D03*
D16*
G36*
X45700000Y-20650000D02*
G01*
X49300000Y-20650000D01*
X48300000Y-24950000D01*
X46700000Y-24950000D01*
X45700000Y-20650000D01*
X45700000Y-20650000D01*
G37*
D15*
X33500000Y-63700000D03*
D16*
G36*
X35300000Y-65850000D02*
G01*
X31700000Y-65850000D01*
X32700000Y-61550000D01*
X34300000Y-61550000D01*
X35300000Y-65850000D01*
X35300000Y-65850000D01*
G37*
D15*
X33500000Y-57300000D03*
D16*
G36*
X31700000Y-55150000D02*
G01*
X35300000Y-55150000D01*
X34300000Y-59450000D01*
X32700000Y-59450000D01*
X31700000Y-55150000D01*
X31700000Y-55150000D01*
G37*
D15*
X40500000Y-63700000D03*
D16*
G36*
X42300000Y-65850000D02*
G01*
X38700000Y-65850000D01*
X39700000Y-61550000D01*
X41300000Y-61550000D01*
X42300000Y-65850000D01*
X42300000Y-65850000D01*
G37*
D15*
X40500000Y-57300000D03*
D16*
G36*
X38700000Y-55150000D02*
G01*
X42300000Y-55150000D01*
X41300000Y-59450000D01*
X39700000Y-59450000D01*
X38700000Y-55150000D01*
X38700000Y-55150000D01*
G37*
D15*
X33500000Y-32700000D03*
D16*
G36*
X35300000Y-34850000D02*
G01*
X31700000Y-34850000D01*
X32700000Y-30550000D01*
X34300000Y-30550000D01*
X35300000Y-34850000D01*
X35300000Y-34850000D01*
G37*
D15*
X33500000Y-26300000D03*
D16*
G36*
X31700000Y-24150000D02*
G01*
X35300000Y-24150000D01*
X34300000Y-28450000D01*
X32700000Y-28450000D01*
X31700000Y-24150000D01*
X31700000Y-24150000D01*
G37*
D15*
X40500000Y-32700000D03*
D16*
G36*
X42300000Y-34850000D02*
G01*
X38700000Y-34850000D01*
X39700000Y-30550000D01*
X41300000Y-30550000D01*
X42300000Y-34850000D01*
X42300000Y-34850000D01*
G37*
D15*
X40500000Y-26300000D03*
D16*
G36*
X38700000Y-24150000D02*
G01*
X42300000Y-24150000D01*
X41300000Y-28450000D01*
X39700000Y-28450000D01*
X38700000Y-24150000D01*
X38700000Y-24150000D01*
G37*
D15*
X54500000Y-60800000D03*
D16*
G36*
X52700000Y-58650000D02*
G01*
X56300000Y-58650000D01*
X55300000Y-62950000D01*
X53700000Y-62950000D01*
X52700000Y-58650000D01*
X52700000Y-58650000D01*
G37*
D15*
X54500000Y-67200000D03*
D16*
G36*
X56300000Y-69350000D02*
G01*
X52700000Y-69350000D01*
X53700000Y-65050000D01*
X55300000Y-65050000D01*
X56300000Y-69350000D01*
X56300000Y-69350000D01*
G37*
D15*
X47500000Y-60800000D03*
D16*
G36*
X45700000Y-58650000D02*
G01*
X49300000Y-58650000D01*
X48300000Y-62950000D01*
X46700000Y-62950000D01*
X45700000Y-58650000D01*
X45700000Y-58650000D01*
G37*
D15*
X47500000Y-67200000D03*
D16*
G36*
X49300000Y-69350000D02*
G01*
X45700000Y-69350000D01*
X46700000Y-65050000D01*
X48300000Y-65050000D01*
X49300000Y-69350000D01*
X49300000Y-69350000D01*
G37*
G36*
X28574504Y-36501204D02*
G01*
X28598773Y-36504804D01*
X28622571Y-36510765D01*
X28645671Y-36519030D01*
X28667849Y-36529520D01*
X28688893Y-36542133D01*
X28708598Y-36556747D01*
X28726777Y-36573223D01*
X28743253Y-36591402D01*
X28757867Y-36611107D01*
X28770480Y-36632151D01*
X28780970Y-36654329D01*
X28789235Y-36677429D01*
X28795196Y-36701227D01*
X28798796Y-36725496D01*
X28800000Y-36750000D01*
X28800000Y-38250000D01*
X28798796Y-38274504D01*
X28795196Y-38298773D01*
X28789235Y-38322571D01*
X28780970Y-38345671D01*
X28770480Y-38367849D01*
X28757867Y-38388893D01*
X28743253Y-38408598D01*
X28726777Y-38426777D01*
X28708598Y-38443253D01*
X28688893Y-38457867D01*
X28667849Y-38470480D01*
X28645671Y-38480970D01*
X28622571Y-38489235D01*
X28598773Y-38495196D01*
X28574504Y-38498796D01*
X28550000Y-38500000D01*
X25450000Y-38500000D01*
X25425496Y-38498796D01*
X25401227Y-38495196D01*
X25377429Y-38489235D01*
X25354329Y-38480970D01*
X25332151Y-38470480D01*
X25311107Y-38457867D01*
X25291402Y-38443253D01*
X25273223Y-38426777D01*
X25256747Y-38408598D01*
X25242133Y-38388893D01*
X25229520Y-38367849D01*
X25219030Y-38345671D01*
X25210765Y-38322571D01*
X25204804Y-38298773D01*
X25201204Y-38274504D01*
X25200000Y-38250000D01*
X25200000Y-36750000D01*
X25201204Y-36725496D01*
X25204804Y-36701227D01*
X25210765Y-36677429D01*
X25219030Y-36654329D01*
X25229520Y-36632151D01*
X25242133Y-36611107D01*
X25256747Y-36591402D01*
X25273223Y-36573223D01*
X25291402Y-36556747D01*
X25311107Y-36542133D01*
X25332151Y-36529520D01*
X25354329Y-36519030D01*
X25377429Y-36510765D01*
X25401227Y-36504804D01*
X25425496Y-36501204D01*
X25450000Y-36500000D01*
X28550000Y-36500000D01*
X28574504Y-36501204D01*
X28574504Y-36501204D01*
G37*
D12*
X27000000Y-37500000D03*
D17*
X27000000Y-42500000D03*
X27000000Y-47500000D03*
X27000000Y-52500000D03*
D18*
X63000000Y-27000000D03*
X68000000Y-27000000D03*
X73000000Y-27000000D03*
D16*
G36*
X78774504Y-25201204D02*
G01*
X78798773Y-25204804D01*
X78822571Y-25210765D01*
X78845671Y-25219030D01*
X78867849Y-25229520D01*
X78888893Y-25242133D01*
X78908598Y-25256747D01*
X78926777Y-25273223D01*
X78943253Y-25291402D01*
X78957867Y-25311107D01*
X78970480Y-25332151D01*
X78980970Y-25354329D01*
X78989235Y-25377429D01*
X78995196Y-25401227D01*
X78998796Y-25425496D01*
X79000000Y-25450000D01*
X79000000Y-28550000D01*
X78998796Y-28574504D01*
X78995196Y-28598773D01*
X78989235Y-28622571D01*
X78980970Y-28645671D01*
X78970480Y-28667849D01*
X78957867Y-28688893D01*
X78943253Y-28708598D01*
X78926777Y-28726777D01*
X78908598Y-28743253D01*
X78888893Y-28757867D01*
X78867849Y-28770480D01*
X78845671Y-28780970D01*
X78822571Y-28789235D01*
X78798773Y-28795196D01*
X78774504Y-28798796D01*
X78750000Y-28800000D01*
X77250000Y-28800000D01*
X77225496Y-28798796D01*
X77201227Y-28795196D01*
X77177429Y-28789235D01*
X77154329Y-28780970D01*
X77132151Y-28770480D01*
X77111107Y-28757867D01*
X77091402Y-28743253D01*
X77073223Y-28726777D01*
X77056747Y-28708598D01*
X77042133Y-28688893D01*
X77029520Y-28667849D01*
X77019030Y-28645671D01*
X77010765Y-28622571D01*
X77004804Y-28598773D01*
X77001204Y-28574504D01*
X77000000Y-28550000D01*
X77000000Y-25450000D01*
X77001204Y-25425496D01*
X77004804Y-25401227D01*
X77010765Y-25377429D01*
X77019030Y-25354329D01*
X77029520Y-25332151D01*
X77042133Y-25311107D01*
X77056747Y-25291402D01*
X77073223Y-25273223D01*
X77091402Y-25256747D01*
X77111107Y-25242133D01*
X77132151Y-25229520D01*
X77154329Y-25219030D01*
X77177429Y-25210765D01*
X77201227Y-25204804D01*
X77225496Y-25201204D01*
X77250000Y-25200000D01*
X78750000Y-25200000D01*
X78774504Y-25201204D01*
X78774504Y-25201204D01*
G37*
D12*
X78000000Y-27000000D03*
D19*
X63000000Y-36000000D03*
D20*
X65500000Y-36000000D03*
D21*
X32500000Y-41850000D03*
X32500000Y-48150000D03*
D22*
X78000000Y-52900000D03*
X78000000Y-55100000D03*
X65500000Y-52900000D03*
X65500000Y-55100000D03*
X78000000Y-63100000D03*
X78000000Y-60900000D03*
X65500000Y-60900000D03*
X65500000Y-63100000D03*
D21*
X40500000Y-48150000D03*
X40500000Y-41850000D03*
D23*
X67600000Y-31500000D03*
X65400000Y-31500000D03*
D24*
X73920000Y-67500000D03*
X76460000Y-67500000D03*
D25*
X79000000Y-67500000D03*
X66500000Y-67500000D03*
D24*
X63960000Y-67500000D03*
X61420000Y-67500000D03*
D12*
X33500000Y-36000000D03*
X33500000Y-54000000D03*
D26*
X54500000Y-40172144D02*
X54172144Y-40500000D01*
X54100000Y-38500000D02*
X54500000Y-38900000D01*
X53500000Y-38500000D02*
X54100000Y-38500000D01*
X54500000Y-29200000D02*
X54500000Y-38900000D01*
X54500000Y-38900000D02*
X54500000Y-40172144D01*
X33500000Y-32700000D02*
X33500000Y-36000000D01*
X47827856Y-29527856D02*
X47500000Y-29200000D01*
X47827856Y-37827856D02*
X48500000Y-38500000D01*
X47827856Y-36500000D02*
X47827856Y-37827856D01*
X47500000Y-32700000D02*
X47827856Y-33027856D01*
X40500000Y-32700000D02*
X47500000Y-32700000D01*
X47827856Y-36500000D02*
X47827856Y-33027856D01*
X47827856Y-33027856D02*
X47827856Y-29527856D01*
X73000000Y-53225000D02*
X74000000Y-54225000D01*
X73000000Y-27000000D02*
X73000000Y-53225000D01*
X58500000Y-25500000D02*
X61500000Y-22500000D01*
X58500000Y-41000000D02*
X58500000Y-25500000D01*
X48500000Y-39914213D02*
X52085787Y-43500000D01*
X56000000Y-43500000D02*
X58500000Y-41000000D01*
X52085787Y-43500000D02*
X56000000Y-43500000D01*
X48500000Y-38500000D02*
X48500000Y-39914213D01*
X61500000Y-22500000D02*
X69500000Y-22500000D01*
X69500000Y-22500000D02*
X73000000Y-26000000D01*
X73000000Y-26000000D02*
X73000000Y-27000000D01*
D27*
X75175000Y-53050000D02*
X74000000Y-54225000D01*
X80500000Y-53050000D02*
X75175000Y-53050000D01*
D26*
X40500000Y-41850000D02*
X40500000Y-32700000D01*
X47827856Y-60472144D02*
X47500000Y-60800000D01*
X48500000Y-51655712D02*
X47827856Y-52327856D01*
X48500000Y-51500000D02*
X48500000Y-51655712D01*
X47827856Y-49500000D02*
X47827856Y-52327856D01*
X41902144Y-57302144D02*
X47827856Y-57302144D01*
X41900000Y-57300000D02*
X41902144Y-57302144D01*
X40500000Y-57300000D02*
X41900000Y-57300000D01*
X47827856Y-52327856D02*
X47827856Y-57302144D01*
X47827856Y-57302144D02*
X47827856Y-60472144D01*
X63000000Y-27000000D02*
X63000000Y-36000000D01*
X63000000Y-52725000D02*
X61500000Y-54225000D01*
X62999999Y-48500001D02*
X63000000Y-48500000D01*
X48827855Y-48500001D02*
X62999999Y-48500001D01*
X47827856Y-49500000D02*
X48827855Y-48500001D01*
X63000000Y-36000000D02*
X63000000Y-48500000D01*
X63000000Y-48500000D02*
X63000000Y-52725000D01*
D27*
X63325000Y-53050000D02*
X68000000Y-53050000D01*
X63000000Y-52725000D02*
X63325000Y-53050000D01*
D26*
X40500000Y-48150000D02*
X40500000Y-57300000D01*
X54172144Y-60472144D02*
X54500000Y-60800000D01*
X54172144Y-53500000D02*
X54172144Y-60472144D01*
X54172144Y-52172144D02*
X53500000Y-51500000D01*
X54172144Y-53500000D02*
X54172144Y-52172144D01*
X33500000Y-57300000D02*
X33500000Y-54000000D01*
X54720000Y-60800000D02*
X61420000Y-67500000D01*
X54500000Y-60800000D02*
X54720000Y-60800000D01*
D27*
X78150000Y-54950000D02*
X78000000Y-55100000D01*
X80500000Y-54950000D02*
X78150000Y-54950000D01*
X78000000Y-56200000D02*
X78000000Y-60900000D01*
X78000000Y-55100000D02*
X78000000Y-56200000D01*
X79670000Y-66830000D02*
X79000000Y-67500000D01*
X79670000Y-61620000D02*
X79670000Y-66830000D01*
X78000000Y-60900000D02*
X78950000Y-60900000D01*
X78950000Y-60900000D02*
X79670000Y-61620000D01*
X65650000Y-54950000D02*
X65500000Y-55100000D01*
X68000000Y-54950000D02*
X65650000Y-54950000D01*
X65500000Y-55100000D02*
X65500000Y-60900000D01*
X67000000Y-67000000D02*
X66500000Y-67500000D01*
X67000000Y-61450000D02*
X67000000Y-67000000D01*
X65500000Y-60900000D02*
X66450000Y-60900000D01*
X66450000Y-60900000D02*
X67000000Y-61450000D01*
D26*
X76460000Y-64235000D02*
X76460000Y-67500000D01*
X74000000Y-61775000D02*
X76460000Y-64235000D01*
D27*
X77015000Y-64235000D02*
X76460000Y-64235000D01*
X78000000Y-63250000D02*
X77015000Y-64235000D01*
X78000000Y-63100000D02*
X78000000Y-63250000D01*
D26*
X63960000Y-64235000D02*
X61500000Y-61775000D01*
X63960000Y-67500000D02*
X63960000Y-64235000D01*
D27*
X65500000Y-63250000D02*
X65500000Y-63100000D01*
X64515000Y-64235000D02*
X65500000Y-63250000D01*
X63960000Y-64235000D02*
X64515000Y-64235000D01*
X67600000Y-27400000D02*
X68000000Y-27000000D01*
X67600000Y-31500000D02*
X67600000Y-27400000D01*
D26*
X54500000Y-22800000D02*
X47500000Y-22800000D01*
X31850000Y-42500000D02*
X32500000Y-41850000D01*
X27000000Y-42500000D02*
X31850000Y-42500000D01*
X26200000Y-42500000D02*
X27000000Y-42500000D01*
X23200000Y-39500000D02*
X26200000Y-42500000D01*
X23200000Y-30500000D02*
X23200000Y-39500000D01*
X47500000Y-22800000D02*
X30900000Y-22800000D01*
X30900000Y-22800000D02*
X23200000Y-30500000D01*
X33500000Y-63700000D02*
X40500000Y-63700000D01*
X27000000Y-57200000D02*
X33500000Y-63700000D01*
X27000000Y-52500000D02*
X27000000Y-57200000D01*
X40500000Y-26300000D02*
X33500000Y-26300000D01*
X27000000Y-32800000D02*
X33500000Y-26300000D01*
X27000000Y-37500000D02*
X27000000Y-32800000D01*
X47500000Y-67200000D02*
X54500000Y-67200000D01*
X31850000Y-47500000D02*
X32500000Y-48150000D01*
X27000000Y-47500000D02*
X31850000Y-47500000D01*
X26200000Y-47500000D02*
X27000000Y-47500000D01*
X23200000Y-50500000D02*
X26200000Y-47500000D01*
X23200000Y-59723998D02*
X23200000Y-50500000D01*
X47500000Y-67200000D02*
X30676002Y-67200000D01*
X30676002Y-67200000D02*
X23200000Y-59723998D01*
D27*
X65400000Y-35900000D02*
X65500000Y-36000000D01*
X65400000Y-31500000D02*
X65400000Y-35900000D01*
M02*
