G04 #@! TF.GenerationSoftware,KiCad,Pcbnew,(5.1.2)-2*
G04 #@! TF.CreationDate,2020-01-06T22:07:24+01:00*
G04 #@! TF.ProjectId,psu,7073752e-6b69-4636-9164-5f7063625858,rev?*
G04 #@! TF.SameCoordinates,Original*
G04 #@! TF.FileFunction,Soldermask,Bot*
G04 #@! TF.FilePolarity,Negative*
%FSLAX46Y46*%
G04 Gerber Fmt 4.6, Leading zero omitted, Abs format (unit mm)*
G04 Created by KiCad (PCBNEW (5.1.2)-2) date 2020-01-06 22:07:24*
%MOMM*%
%LPD*%
G04 APERTURE LIST*
%ADD10C,0.100000*%
G04 APERTURE END LIST*
D10*
G36*
X86744098Y-63547033D02*
G01*
X87208350Y-63739332D01*
X87208352Y-63739333D01*
X87626168Y-64018509D01*
X87981491Y-64373832D01*
X88260667Y-64791648D01*
X88260668Y-64791650D01*
X88452967Y-65255902D01*
X88551000Y-65748747D01*
X88551000Y-66251253D01*
X88452967Y-66744098D01*
X88260668Y-67208350D01*
X88260667Y-67208352D01*
X87981491Y-67626168D01*
X87626168Y-67981491D01*
X87208352Y-68260667D01*
X87208351Y-68260668D01*
X87208350Y-68260668D01*
X86744098Y-68452967D01*
X86251253Y-68551000D01*
X85748747Y-68551000D01*
X85255902Y-68452967D01*
X84791650Y-68260668D01*
X84791649Y-68260668D01*
X84791648Y-68260667D01*
X84373832Y-67981491D01*
X84018509Y-67626168D01*
X83739333Y-67208352D01*
X83739332Y-67208350D01*
X83547033Y-66744098D01*
X83449000Y-66251253D01*
X83449000Y-65748747D01*
X83547033Y-65255902D01*
X83739332Y-64791650D01*
X83739333Y-64791648D01*
X84018509Y-64373832D01*
X84373832Y-64018509D01*
X84791648Y-63739333D01*
X84791650Y-63739332D01*
X85255902Y-63547033D01*
X85748747Y-63449000D01*
X86251253Y-63449000D01*
X86744098Y-63547033D01*
X86744098Y-63547033D01*
G37*
G36*
X24744098Y-63547033D02*
G01*
X25208350Y-63739332D01*
X25208352Y-63739333D01*
X25626168Y-64018509D01*
X25981491Y-64373832D01*
X26260667Y-64791648D01*
X26260668Y-64791650D01*
X26452967Y-65255902D01*
X26551000Y-65748747D01*
X26551000Y-66251253D01*
X26452967Y-66744098D01*
X26260668Y-67208350D01*
X26260667Y-67208352D01*
X25981491Y-67626168D01*
X25626168Y-67981491D01*
X25208352Y-68260667D01*
X25208351Y-68260668D01*
X25208350Y-68260668D01*
X24744098Y-68452967D01*
X24251253Y-68551000D01*
X23748747Y-68551000D01*
X23255902Y-68452967D01*
X22791650Y-68260668D01*
X22791649Y-68260668D01*
X22791648Y-68260667D01*
X22373832Y-67981491D01*
X22018509Y-67626168D01*
X21739333Y-67208352D01*
X21739332Y-67208350D01*
X21547033Y-66744098D01*
X21449000Y-66251253D01*
X21449000Y-65748747D01*
X21547033Y-65255902D01*
X21739332Y-64791650D01*
X21739333Y-64791648D01*
X22018509Y-64373832D01*
X22373832Y-64018509D01*
X22791648Y-63739333D01*
X22791650Y-63739332D01*
X23255902Y-63547033D01*
X23748747Y-63449000D01*
X24251253Y-63449000D01*
X24744098Y-63547033D01*
X24744098Y-63547033D01*
G37*
G36*
X61606425Y-66562760D02*
G01*
X61606428Y-66562761D01*
X61606429Y-66562761D01*
X61785693Y-66617140D01*
X61785696Y-66617142D01*
X61785697Y-66617142D01*
X61950903Y-66705446D01*
X62095712Y-66824288D01*
X62214554Y-66969097D01*
X62302858Y-67134303D01*
X62302860Y-67134307D01*
X62325321Y-67208352D01*
X62357240Y-67313575D01*
X62375601Y-67500000D01*
X62357240Y-67686425D01*
X62357239Y-67686428D01*
X62357239Y-67686429D01*
X62302860Y-67865693D01*
X62302858Y-67865696D01*
X62302858Y-67865697D01*
X62214554Y-68030903D01*
X62095712Y-68175712D01*
X61950903Y-68294554D01*
X61785697Y-68382858D01*
X61785693Y-68382860D01*
X61606429Y-68437239D01*
X61606428Y-68437239D01*
X61606425Y-68437240D01*
X61466718Y-68451000D01*
X61373282Y-68451000D01*
X61233575Y-68437240D01*
X61233572Y-68437239D01*
X61233571Y-68437239D01*
X61054307Y-68382860D01*
X61054303Y-68382858D01*
X60889097Y-68294554D01*
X60744288Y-68175712D01*
X60625446Y-68030903D01*
X60537142Y-67865697D01*
X60537142Y-67865696D01*
X60537140Y-67865693D01*
X60482761Y-67686429D01*
X60482761Y-67686428D01*
X60482760Y-67686425D01*
X60464399Y-67500000D01*
X60482760Y-67313575D01*
X60514679Y-67208352D01*
X60537140Y-67134307D01*
X60537142Y-67134303D01*
X60625446Y-66969097D01*
X60744288Y-66824288D01*
X60889097Y-66705446D01*
X61054303Y-66617142D01*
X61054304Y-66617142D01*
X61054307Y-66617140D01*
X61233571Y-66562761D01*
X61233572Y-66562761D01*
X61233575Y-66562760D01*
X61373282Y-66549000D01*
X61466718Y-66549000D01*
X61606425Y-66562760D01*
X61606425Y-66562760D01*
G37*
G36*
X64146425Y-66562760D02*
G01*
X64146428Y-66562761D01*
X64146429Y-66562761D01*
X64325693Y-66617140D01*
X64325696Y-66617142D01*
X64325697Y-66617142D01*
X64490903Y-66705446D01*
X64635712Y-66824288D01*
X64754554Y-66969097D01*
X64842858Y-67134303D01*
X64842860Y-67134307D01*
X64865321Y-67208352D01*
X64897240Y-67313575D01*
X64915601Y-67500000D01*
X64897240Y-67686425D01*
X64897239Y-67686428D01*
X64897239Y-67686429D01*
X64842860Y-67865693D01*
X64842858Y-67865696D01*
X64842858Y-67865697D01*
X64754554Y-68030903D01*
X64635712Y-68175712D01*
X64490903Y-68294554D01*
X64325697Y-68382858D01*
X64325693Y-68382860D01*
X64146429Y-68437239D01*
X64146428Y-68437239D01*
X64146425Y-68437240D01*
X64006718Y-68451000D01*
X63913282Y-68451000D01*
X63773575Y-68437240D01*
X63773572Y-68437239D01*
X63773571Y-68437239D01*
X63594307Y-68382860D01*
X63594303Y-68382858D01*
X63429097Y-68294554D01*
X63284288Y-68175712D01*
X63165446Y-68030903D01*
X63077142Y-67865697D01*
X63077142Y-67865696D01*
X63077140Y-67865693D01*
X63022761Y-67686429D01*
X63022761Y-67686428D01*
X63022760Y-67686425D01*
X63004399Y-67500000D01*
X63022760Y-67313575D01*
X63054679Y-67208352D01*
X63077140Y-67134307D01*
X63077142Y-67134303D01*
X63165446Y-66969097D01*
X63284288Y-66824288D01*
X63429097Y-66705446D01*
X63594303Y-66617142D01*
X63594304Y-66617142D01*
X63594307Y-66617140D01*
X63773571Y-66562761D01*
X63773572Y-66562761D01*
X63773575Y-66562760D01*
X63913282Y-66549000D01*
X64006718Y-66549000D01*
X64146425Y-66562760D01*
X64146425Y-66562760D01*
G37*
G36*
X67451000Y-68451000D02*
G01*
X65549000Y-68451000D01*
X65549000Y-66549000D01*
X67451000Y-66549000D01*
X67451000Y-68451000D01*
X67451000Y-68451000D01*
G37*
G36*
X79951000Y-68451000D02*
G01*
X78049000Y-68451000D01*
X78049000Y-66549000D01*
X79951000Y-66549000D01*
X79951000Y-68451000D01*
X79951000Y-68451000D01*
G37*
G36*
X76646425Y-66562760D02*
G01*
X76646428Y-66562761D01*
X76646429Y-66562761D01*
X76825693Y-66617140D01*
X76825696Y-66617142D01*
X76825697Y-66617142D01*
X76990903Y-66705446D01*
X77135712Y-66824288D01*
X77254554Y-66969097D01*
X77342858Y-67134303D01*
X77342860Y-67134307D01*
X77365321Y-67208352D01*
X77397240Y-67313575D01*
X77415601Y-67500000D01*
X77397240Y-67686425D01*
X77397239Y-67686428D01*
X77397239Y-67686429D01*
X77342860Y-67865693D01*
X77342858Y-67865696D01*
X77342858Y-67865697D01*
X77254554Y-68030903D01*
X77135712Y-68175712D01*
X76990903Y-68294554D01*
X76825697Y-68382858D01*
X76825693Y-68382860D01*
X76646429Y-68437239D01*
X76646428Y-68437239D01*
X76646425Y-68437240D01*
X76506718Y-68451000D01*
X76413282Y-68451000D01*
X76273575Y-68437240D01*
X76273572Y-68437239D01*
X76273571Y-68437239D01*
X76094307Y-68382860D01*
X76094303Y-68382858D01*
X75929097Y-68294554D01*
X75784288Y-68175712D01*
X75665446Y-68030903D01*
X75577142Y-67865697D01*
X75577142Y-67865696D01*
X75577140Y-67865693D01*
X75522761Y-67686429D01*
X75522761Y-67686428D01*
X75522760Y-67686425D01*
X75504399Y-67500000D01*
X75522760Y-67313575D01*
X75554679Y-67208352D01*
X75577140Y-67134307D01*
X75577142Y-67134303D01*
X75665446Y-66969097D01*
X75784288Y-66824288D01*
X75929097Y-66705446D01*
X76094303Y-66617142D01*
X76094304Y-66617142D01*
X76094307Y-66617140D01*
X76273571Y-66562761D01*
X76273572Y-66562761D01*
X76273575Y-66562760D01*
X76413282Y-66549000D01*
X76506718Y-66549000D01*
X76646425Y-66562760D01*
X76646425Y-66562760D01*
G37*
G36*
X74106425Y-66562760D02*
G01*
X74106428Y-66562761D01*
X74106429Y-66562761D01*
X74285693Y-66617140D01*
X74285696Y-66617142D01*
X74285697Y-66617142D01*
X74450903Y-66705446D01*
X74595712Y-66824288D01*
X74714554Y-66969097D01*
X74802858Y-67134303D01*
X74802860Y-67134307D01*
X74825321Y-67208352D01*
X74857240Y-67313575D01*
X74875601Y-67500000D01*
X74857240Y-67686425D01*
X74857239Y-67686428D01*
X74857239Y-67686429D01*
X74802860Y-67865693D01*
X74802858Y-67865696D01*
X74802858Y-67865697D01*
X74714554Y-68030903D01*
X74595712Y-68175712D01*
X74450903Y-68294554D01*
X74285697Y-68382858D01*
X74285693Y-68382860D01*
X74106429Y-68437239D01*
X74106428Y-68437239D01*
X74106425Y-68437240D01*
X73966718Y-68451000D01*
X73873282Y-68451000D01*
X73733575Y-68437240D01*
X73733572Y-68437239D01*
X73733571Y-68437239D01*
X73554307Y-68382860D01*
X73554303Y-68382858D01*
X73389097Y-68294554D01*
X73244288Y-68175712D01*
X73125446Y-68030903D01*
X73037142Y-67865697D01*
X73037142Y-67865696D01*
X73037140Y-67865693D01*
X72982761Y-67686429D01*
X72982761Y-67686428D01*
X72982760Y-67686425D01*
X72964399Y-67500000D01*
X72982760Y-67313575D01*
X73014679Y-67208352D01*
X73037140Y-67134307D01*
X73037142Y-67134303D01*
X73125446Y-66969097D01*
X73244288Y-66824288D01*
X73389097Y-66705446D01*
X73554303Y-66617142D01*
X73554304Y-66617142D01*
X73554307Y-66617140D01*
X73733571Y-66562761D01*
X73733572Y-66562761D01*
X73733575Y-66562760D01*
X73873282Y-66549000D01*
X73966718Y-66549000D01*
X74106425Y-66562760D01*
X74106425Y-66562760D01*
G37*
G36*
X54551000Y-52324001D02*
G01*
X54553402Y-52348387D01*
X54560515Y-52371836D01*
X54572066Y-52393447D01*
X54587611Y-52412389D01*
X54606553Y-52427934D01*
X54628164Y-52439485D01*
X54651613Y-52446598D01*
X54675999Y-52449000D01*
X55223144Y-52449000D01*
X55223144Y-54551000D01*
X53121144Y-54551000D01*
X53121144Y-52675999D01*
X53118742Y-52651613D01*
X53111629Y-52628164D01*
X53100078Y-52606553D01*
X53084533Y-52587611D01*
X53065591Y-52572066D01*
X53043980Y-52560515D01*
X53020531Y-52553402D01*
X52996145Y-52551000D01*
X52449000Y-52551000D01*
X52449000Y-50449000D01*
X54551000Y-50449000D01*
X54551000Y-52324001D01*
X54551000Y-52324001D01*
G37*
G36*
X27903097Y-51454069D02*
G01*
X28006032Y-51464207D01*
X28204146Y-51524305D01*
X28204149Y-51524306D01*
X28300975Y-51576061D01*
X28386729Y-51621897D01*
X28546765Y-51753235D01*
X28678103Y-51913271D01*
X28723302Y-51997833D01*
X28775694Y-52095851D01*
X28775695Y-52095854D01*
X28835793Y-52293968D01*
X28856085Y-52500000D01*
X28835793Y-52706032D01*
X28775695Y-52904146D01*
X28775694Y-52904149D01*
X28723939Y-53000975D01*
X28678103Y-53086729D01*
X28546765Y-53246765D01*
X28386729Y-53378103D01*
X28300975Y-53423939D01*
X28204149Y-53475694D01*
X28204146Y-53475695D01*
X28006032Y-53535793D01*
X27903097Y-53545931D01*
X27851631Y-53551000D01*
X26148369Y-53551000D01*
X26096903Y-53545931D01*
X25993968Y-53535793D01*
X25795854Y-53475695D01*
X25795851Y-53475694D01*
X25699025Y-53423939D01*
X25613271Y-53378103D01*
X25453235Y-53246765D01*
X25321897Y-53086729D01*
X25276061Y-53000975D01*
X25224306Y-52904149D01*
X25224305Y-52904146D01*
X25164207Y-52706032D01*
X25143915Y-52500000D01*
X25164207Y-52293968D01*
X25224305Y-52095854D01*
X25224306Y-52095851D01*
X25276698Y-51997833D01*
X25321897Y-51913271D01*
X25453235Y-51753235D01*
X25613271Y-51621897D01*
X25699025Y-51576061D01*
X25795851Y-51524306D01*
X25795854Y-51524305D01*
X25993968Y-51464207D01*
X26096903Y-51454069D01*
X26148369Y-51449000D01*
X27851631Y-51449000D01*
X27903097Y-51454069D01*
X27903097Y-51454069D01*
G37*
G36*
X48134420Y-48489389D02*
G01*
X48325689Y-48568615D01*
X48325691Y-48568616D01*
X48497829Y-48683635D01*
X48644221Y-48830027D01*
X48759241Y-49002167D01*
X48838467Y-49193436D01*
X48878856Y-49396484D01*
X48878856Y-49603516D01*
X48838467Y-49806564D01*
X48759241Y-49997833D01*
X48644221Y-50169973D01*
X48570096Y-50244098D01*
X48554551Y-50263040D01*
X48543000Y-50284651D01*
X48535887Y-50308100D01*
X48533485Y-50332486D01*
X48535887Y-50356872D01*
X48543000Y-50380321D01*
X48554551Y-50401932D01*
X48570096Y-50420874D01*
X48589038Y-50436419D01*
X48610649Y-50447970D01*
X48634098Y-50455083D01*
X48806564Y-50489389D01*
X48997833Y-50568615D01*
X48997835Y-50568616D01*
X49013564Y-50579126D01*
X49169973Y-50683635D01*
X49316365Y-50830027D01*
X49431385Y-51002167D01*
X49510611Y-51193436D01*
X49551000Y-51396484D01*
X49551000Y-51603516D01*
X49510611Y-51806564D01*
X49466411Y-51913272D01*
X49431384Y-51997835D01*
X49316365Y-52169973D01*
X49169973Y-52316365D01*
X48997835Y-52431384D01*
X48997834Y-52431385D01*
X48997833Y-52431385D01*
X48806564Y-52510611D01*
X48603516Y-52551000D01*
X48396484Y-52551000D01*
X48193436Y-52510611D01*
X48002167Y-52431385D01*
X48002166Y-52431385D01*
X48002165Y-52431384D01*
X47830027Y-52316365D01*
X47683635Y-52169973D01*
X47568616Y-51997835D01*
X47533589Y-51913272D01*
X47489389Y-51806564D01*
X47449000Y-51603516D01*
X47449000Y-51396484D01*
X47489389Y-51193436D01*
X47568615Y-51002167D01*
X47683635Y-50830027D01*
X47757760Y-50755902D01*
X47773305Y-50736960D01*
X47784856Y-50715349D01*
X47791969Y-50691900D01*
X47794371Y-50667514D01*
X47791969Y-50643128D01*
X47784856Y-50619679D01*
X47773305Y-50598068D01*
X47757760Y-50579126D01*
X47738818Y-50563581D01*
X47717207Y-50552030D01*
X47693758Y-50544917D01*
X47521292Y-50510611D01*
X47330023Y-50431385D01*
X47330022Y-50431385D01*
X47330021Y-50431384D01*
X47157883Y-50316365D01*
X47011491Y-50169973D01*
X46896472Y-49997835D01*
X46896471Y-49997833D01*
X46817245Y-49806564D01*
X46776856Y-49603516D01*
X46776856Y-49396484D01*
X46817245Y-49193436D01*
X46896471Y-49002167D01*
X47011491Y-48830027D01*
X47157883Y-48683635D01*
X47330021Y-48568616D01*
X47330023Y-48568615D01*
X47521292Y-48489389D01*
X47724340Y-48449000D01*
X47931372Y-48449000D01*
X48134420Y-48489389D01*
X48134420Y-48489389D01*
G37*
G36*
X27903097Y-46454069D02*
G01*
X28006032Y-46464207D01*
X28204146Y-46524305D01*
X28204149Y-46524306D01*
X28300975Y-46576061D01*
X28386729Y-46621897D01*
X28546765Y-46753235D01*
X28678103Y-46913271D01*
X28723939Y-46999025D01*
X28775694Y-47095851D01*
X28775695Y-47095854D01*
X28835793Y-47293968D01*
X28856085Y-47500000D01*
X28835793Y-47706032D01*
X28775695Y-47904146D01*
X28775694Y-47904149D01*
X28723939Y-48000975D01*
X28678103Y-48086729D01*
X28546765Y-48246765D01*
X28386729Y-48378103D01*
X28300975Y-48423939D01*
X28204149Y-48475694D01*
X28204146Y-48475695D01*
X28006032Y-48535793D01*
X27903097Y-48545931D01*
X27851631Y-48551000D01*
X26148369Y-48551000D01*
X26096903Y-48545931D01*
X25993968Y-48535793D01*
X25795854Y-48475695D01*
X25795851Y-48475694D01*
X25699025Y-48423939D01*
X25613271Y-48378103D01*
X25453235Y-48246765D01*
X25321897Y-48086729D01*
X25276061Y-48000975D01*
X25224306Y-47904149D01*
X25224305Y-47904146D01*
X25164207Y-47706032D01*
X25143915Y-47500000D01*
X25164207Y-47293968D01*
X25224305Y-47095854D01*
X25224306Y-47095851D01*
X25276061Y-46999025D01*
X25321897Y-46913271D01*
X25453235Y-46753235D01*
X25613271Y-46621897D01*
X25699025Y-46576061D01*
X25795851Y-46524306D01*
X25795854Y-46524305D01*
X25993968Y-46464207D01*
X26096903Y-46454069D01*
X26148369Y-46449000D01*
X27851631Y-46449000D01*
X27903097Y-46454069D01*
X27903097Y-46454069D01*
G37*
G36*
X27903097Y-41454069D02*
G01*
X28006032Y-41464207D01*
X28204146Y-41524305D01*
X28204149Y-41524306D01*
X28300975Y-41576061D01*
X28386729Y-41621897D01*
X28546765Y-41753235D01*
X28678103Y-41913271D01*
X28723939Y-41999025D01*
X28775694Y-42095851D01*
X28775695Y-42095854D01*
X28835793Y-42293968D01*
X28856085Y-42500000D01*
X28835793Y-42706032D01*
X28775695Y-42904146D01*
X28775694Y-42904149D01*
X28723939Y-43000975D01*
X28678103Y-43086729D01*
X28546765Y-43246765D01*
X28386729Y-43378103D01*
X28300975Y-43423939D01*
X28204149Y-43475694D01*
X28204146Y-43475695D01*
X28006032Y-43535793D01*
X27903097Y-43545931D01*
X27851631Y-43551000D01*
X26148369Y-43551000D01*
X26096903Y-43545931D01*
X25993968Y-43535793D01*
X25795854Y-43475695D01*
X25795851Y-43475694D01*
X25699025Y-43423939D01*
X25613271Y-43378103D01*
X25453235Y-43246765D01*
X25321897Y-43086729D01*
X25276061Y-43000975D01*
X25224306Y-42904149D01*
X25224305Y-42904146D01*
X25164207Y-42706032D01*
X25143915Y-42500000D01*
X25164207Y-42293968D01*
X25224305Y-42095854D01*
X25224306Y-42095851D01*
X25276061Y-41999025D01*
X25321897Y-41913271D01*
X25453235Y-41753235D01*
X25613271Y-41621897D01*
X25699025Y-41576061D01*
X25795851Y-41524306D01*
X25795854Y-41524305D01*
X25993968Y-41464207D01*
X26096903Y-41454069D01*
X26148369Y-41449000D01*
X27851631Y-41449000D01*
X27903097Y-41454069D01*
X27903097Y-41454069D01*
G37*
G36*
X54551000Y-39324001D02*
G01*
X54553402Y-39348387D01*
X54560515Y-39371836D01*
X54572066Y-39393447D01*
X54587611Y-39412389D01*
X54606553Y-39427934D01*
X54628164Y-39439485D01*
X54651613Y-39446598D01*
X54675999Y-39449000D01*
X55223144Y-39449000D01*
X55223144Y-41551000D01*
X53121144Y-41551000D01*
X53121144Y-39675999D01*
X53118742Y-39651613D01*
X53111629Y-39628164D01*
X53100078Y-39606553D01*
X53084533Y-39587611D01*
X53065591Y-39572066D01*
X53043980Y-39560515D01*
X53020531Y-39553402D01*
X52996145Y-39551000D01*
X52449000Y-39551000D01*
X52449000Y-37449000D01*
X54551000Y-37449000D01*
X54551000Y-39324001D01*
X54551000Y-39324001D01*
G37*
G36*
X48134420Y-35489389D02*
G01*
X48325689Y-35568615D01*
X48325691Y-35568616D01*
X48497829Y-35683635D01*
X48644221Y-35830027D01*
X48759241Y-36002167D01*
X48838467Y-36193436D01*
X48878856Y-36396484D01*
X48878856Y-36603516D01*
X48838467Y-36806564D01*
X48759241Y-36997833D01*
X48644221Y-37169973D01*
X48570096Y-37244098D01*
X48554551Y-37263040D01*
X48543000Y-37284651D01*
X48535887Y-37308100D01*
X48533485Y-37332486D01*
X48535887Y-37356872D01*
X48543000Y-37380321D01*
X48554551Y-37401932D01*
X48570096Y-37420874D01*
X48589038Y-37436419D01*
X48610649Y-37447970D01*
X48634098Y-37455083D01*
X48806564Y-37489389D01*
X48997833Y-37568615D01*
X48997835Y-37568616D01*
X49013564Y-37579126D01*
X49169973Y-37683635D01*
X49316365Y-37830027D01*
X49431385Y-38002167D01*
X49510611Y-38193436D01*
X49551000Y-38396484D01*
X49551000Y-38603516D01*
X49510611Y-38806564D01*
X49431385Y-38997833D01*
X49431384Y-38997835D01*
X49316365Y-39169973D01*
X49169973Y-39316365D01*
X48997835Y-39431384D01*
X48997834Y-39431385D01*
X48997833Y-39431385D01*
X48806564Y-39510611D01*
X48603516Y-39551000D01*
X48396484Y-39551000D01*
X48193436Y-39510611D01*
X48002167Y-39431385D01*
X48002166Y-39431385D01*
X48002165Y-39431384D01*
X47830027Y-39316365D01*
X47683635Y-39169973D01*
X47568616Y-38997835D01*
X47568615Y-38997833D01*
X47489389Y-38806564D01*
X47449000Y-38603516D01*
X47449000Y-38396484D01*
X47489389Y-38193436D01*
X47568615Y-38002167D01*
X47683635Y-37830027D01*
X47757760Y-37755902D01*
X47773305Y-37736960D01*
X47784856Y-37715349D01*
X47791969Y-37691900D01*
X47794371Y-37667514D01*
X47791969Y-37643128D01*
X47784856Y-37619679D01*
X47773305Y-37598068D01*
X47757760Y-37579126D01*
X47738818Y-37563581D01*
X47717207Y-37552030D01*
X47693758Y-37544917D01*
X47521292Y-37510611D01*
X47330023Y-37431385D01*
X47330022Y-37431385D01*
X47330021Y-37431384D01*
X47157883Y-37316365D01*
X47011491Y-37169973D01*
X46896472Y-36997835D01*
X46896471Y-36997833D01*
X46817245Y-36806564D01*
X46776856Y-36603516D01*
X46776856Y-36396484D01*
X46817245Y-36193436D01*
X46896471Y-36002167D01*
X47011491Y-35830027D01*
X47157883Y-35683635D01*
X47330021Y-35568616D01*
X47330023Y-35568615D01*
X47521292Y-35489389D01*
X47724340Y-35449000D01*
X47931372Y-35449000D01*
X48134420Y-35489389D01*
X48134420Y-35489389D01*
G37*
G36*
X28714852Y-36452840D02*
G01*
X28746443Y-36462423D01*
X28775557Y-36477985D01*
X28801074Y-36498926D01*
X28822015Y-36524443D01*
X28837577Y-36553557D01*
X28847160Y-36585148D01*
X28851000Y-36624140D01*
X28851000Y-38375860D01*
X28847160Y-38414852D01*
X28837577Y-38446443D01*
X28822015Y-38475557D01*
X28801074Y-38501074D01*
X28775557Y-38522015D01*
X28746443Y-38537577D01*
X28714852Y-38547160D01*
X28675860Y-38551000D01*
X25324140Y-38551000D01*
X25285148Y-38547160D01*
X25253557Y-38537577D01*
X25224443Y-38522015D01*
X25198926Y-38501074D01*
X25177985Y-38475557D01*
X25162423Y-38446443D01*
X25152840Y-38414852D01*
X25149000Y-38375860D01*
X25149000Y-36624140D01*
X25152840Y-36585148D01*
X25162423Y-36553557D01*
X25177985Y-36524443D01*
X25198926Y-36498926D01*
X25224443Y-36477985D01*
X25253557Y-36462423D01*
X25285148Y-36452840D01*
X25324140Y-36449000D01*
X28675860Y-36449000D01*
X28714852Y-36452840D01*
X28714852Y-36452840D01*
G37*
G36*
X66476000Y-36976000D02*
G01*
X64524000Y-36976000D01*
X64524000Y-35024000D01*
X66476000Y-35024000D01*
X66476000Y-36976000D01*
X66476000Y-36976000D01*
G37*
G36*
X63284687Y-35061507D02*
G01*
X63284690Y-35061508D01*
X63284689Y-35061508D01*
X63462309Y-35135080D01*
X63462310Y-35135081D01*
X63622161Y-35241889D01*
X63758111Y-35377839D01*
X63832646Y-35489390D01*
X63864920Y-35537691D01*
X63877729Y-35568615D01*
X63938493Y-35715313D01*
X63976000Y-35903871D01*
X63976000Y-36096129D01*
X63938493Y-36284687D01*
X63938492Y-36284689D01*
X63864920Y-36462309D01*
X63847158Y-36488891D01*
X63758111Y-36622161D01*
X63622161Y-36758111D01*
X63488891Y-36847158D01*
X63462309Y-36864920D01*
X63324927Y-36921825D01*
X63284687Y-36938493D01*
X63096129Y-36976000D01*
X62903871Y-36976000D01*
X62715313Y-36938493D01*
X62675073Y-36921825D01*
X62537691Y-36864920D01*
X62511109Y-36847158D01*
X62377839Y-36758111D01*
X62241889Y-36622161D01*
X62152842Y-36488891D01*
X62135080Y-36462309D01*
X62061508Y-36284689D01*
X62061507Y-36284687D01*
X62024000Y-36096129D01*
X62024000Y-35903871D01*
X62061507Y-35715313D01*
X62122271Y-35568615D01*
X62135080Y-35537691D01*
X62167354Y-35489390D01*
X62241889Y-35377839D01*
X62377839Y-35241889D01*
X62537690Y-35135081D01*
X62537691Y-35135080D01*
X62715311Y-35061508D01*
X62715310Y-35061508D01*
X62715313Y-35061507D01*
X62903871Y-35024000D01*
X63096129Y-35024000D01*
X63284687Y-35061507D01*
X63284687Y-35061507D01*
G37*
G36*
X63206032Y-25164207D02*
G01*
X63404146Y-25224305D01*
X63404149Y-25224306D01*
X63458873Y-25253557D01*
X63586729Y-25321897D01*
X63746765Y-25453235D01*
X63878103Y-25613271D01*
X63923939Y-25699025D01*
X63975694Y-25795851D01*
X63975695Y-25795854D01*
X64035793Y-25993968D01*
X64051000Y-26148370D01*
X64051000Y-27851630D01*
X64035793Y-28006032D01*
X63975695Y-28204145D01*
X63975694Y-28204149D01*
X63923939Y-28300975D01*
X63878103Y-28386729D01*
X63746765Y-28546765D01*
X63586729Y-28678103D01*
X63481729Y-28734226D01*
X63404148Y-28775694D01*
X63404145Y-28775695D01*
X63206031Y-28835793D01*
X63000000Y-28856085D01*
X62793968Y-28835793D01*
X62595854Y-28775695D01*
X62595851Y-28775694D01*
X62482024Y-28714852D01*
X62413271Y-28678103D01*
X62253235Y-28546765D01*
X62121897Y-28386729D01*
X62024307Y-28204149D01*
X62024306Y-28204148D01*
X62024305Y-28204145D01*
X61964207Y-28006031D01*
X61949000Y-27851629D01*
X61949000Y-26148369D01*
X61964207Y-25993967D01*
X62024305Y-25795854D01*
X62087904Y-25676870D01*
X62121898Y-25613271D01*
X62253236Y-25453235D01*
X62413272Y-25321897D01*
X62541128Y-25253557D01*
X62595852Y-25224306D01*
X62595855Y-25224305D01*
X62793969Y-25164207D01*
X63000000Y-25143915D01*
X63206032Y-25164207D01*
X63206032Y-25164207D01*
G37*
G36*
X73206032Y-25164207D02*
G01*
X73404146Y-25224305D01*
X73404149Y-25224306D01*
X73458873Y-25253557D01*
X73586729Y-25321897D01*
X73746765Y-25453235D01*
X73878103Y-25613271D01*
X73923939Y-25699025D01*
X73975694Y-25795851D01*
X73975695Y-25795854D01*
X74035793Y-25993968D01*
X74051000Y-26148370D01*
X74051000Y-27851630D01*
X74035793Y-28006032D01*
X73975695Y-28204145D01*
X73975694Y-28204149D01*
X73923939Y-28300975D01*
X73878103Y-28386729D01*
X73746765Y-28546765D01*
X73586729Y-28678103D01*
X73481729Y-28734226D01*
X73404148Y-28775694D01*
X73404145Y-28775695D01*
X73206031Y-28835793D01*
X73000000Y-28856085D01*
X72793968Y-28835793D01*
X72595854Y-28775695D01*
X72595851Y-28775694D01*
X72482024Y-28714852D01*
X72413271Y-28678103D01*
X72253235Y-28546765D01*
X72121897Y-28386729D01*
X72024307Y-28204149D01*
X72024306Y-28204148D01*
X72024305Y-28204145D01*
X71964207Y-28006031D01*
X71949000Y-27851629D01*
X71949000Y-26148369D01*
X71964207Y-25993967D01*
X72024305Y-25795854D01*
X72087904Y-25676870D01*
X72121898Y-25613271D01*
X72253236Y-25453235D01*
X72413272Y-25321897D01*
X72541128Y-25253557D01*
X72595852Y-25224306D01*
X72595855Y-25224305D01*
X72793969Y-25164207D01*
X73000000Y-25143915D01*
X73206032Y-25164207D01*
X73206032Y-25164207D01*
G37*
G36*
X68206032Y-25164207D02*
G01*
X68404146Y-25224305D01*
X68404149Y-25224306D01*
X68458873Y-25253557D01*
X68586729Y-25321897D01*
X68746765Y-25453235D01*
X68878103Y-25613271D01*
X68923939Y-25699025D01*
X68975694Y-25795851D01*
X68975695Y-25795854D01*
X69035793Y-25993968D01*
X69051000Y-26148370D01*
X69051000Y-27851630D01*
X69035793Y-28006032D01*
X68975695Y-28204145D01*
X68975694Y-28204149D01*
X68923939Y-28300975D01*
X68878103Y-28386729D01*
X68746765Y-28546765D01*
X68586729Y-28678103D01*
X68481729Y-28734226D01*
X68404148Y-28775694D01*
X68404145Y-28775695D01*
X68206031Y-28835793D01*
X68000000Y-28856085D01*
X67793968Y-28835793D01*
X67595854Y-28775695D01*
X67595851Y-28775694D01*
X67482024Y-28714852D01*
X67413271Y-28678103D01*
X67253235Y-28546765D01*
X67121897Y-28386729D01*
X67024307Y-28204149D01*
X67024306Y-28204148D01*
X67024305Y-28204145D01*
X66964207Y-28006031D01*
X66949000Y-27851629D01*
X66949000Y-26148369D01*
X66964207Y-25993967D01*
X67024305Y-25795854D01*
X67087904Y-25676870D01*
X67121898Y-25613271D01*
X67253236Y-25453235D01*
X67413272Y-25321897D01*
X67541128Y-25253557D01*
X67595852Y-25224306D01*
X67595855Y-25224305D01*
X67793969Y-25164207D01*
X68000000Y-25143915D01*
X68206032Y-25164207D01*
X68206032Y-25164207D01*
G37*
G36*
X78914852Y-25152840D02*
G01*
X78946443Y-25162423D01*
X78975557Y-25177985D01*
X79001074Y-25198926D01*
X79022015Y-25224443D01*
X79037577Y-25253557D01*
X79047160Y-25285148D01*
X79051000Y-25324140D01*
X79051000Y-28675860D01*
X79047160Y-28714852D01*
X79037577Y-28746443D01*
X79022015Y-28775557D01*
X79001074Y-28801074D01*
X78975557Y-28822015D01*
X78946443Y-28837577D01*
X78914852Y-28847160D01*
X78875860Y-28851000D01*
X77124140Y-28851000D01*
X77085148Y-28847160D01*
X77053557Y-28837577D01*
X77024443Y-28822015D01*
X76998926Y-28801074D01*
X76977985Y-28775557D01*
X76962423Y-28746443D01*
X76952840Y-28714852D01*
X76949000Y-28675860D01*
X76949000Y-25324140D01*
X76952840Y-25285148D01*
X76962423Y-25253557D01*
X76977985Y-25224443D01*
X76998926Y-25198926D01*
X77024443Y-25177985D01*
X77053557Y-25162423D01*
X77085148Y-25152840D01*
X77124140Y-25149000D01*
X78875860Y-25149000D01*
X78914852Y-25152840D01*
X78914852Y-25152840D01*
G37*
G36*
X86744098Y-21547033D02*
G01*
X87208350Y-21739332D01*
X87208352Y-21739333D01*
X87626168Y-22018509D01*
X87981491Y-22373832D01*
X88260667Y-22791648D01*
X88260668Y-22791650D01*
X88452967Y-23255902D01*
X88551000Y-23748747D01*
X88551000Y-24251253D01*
X88452967Y-24744098D01*
X88260668Y-25208350D01*
X88260667Y-25208352D01*
X87981491Y-25626168D01*
X87626168Y-25981491D01*
X87208352Y-26260667D01*
X87208351Y-26260668D01*
X87208350Y-26260668D01*
X86744098Y-26452967D01*
X86251253Y-26551000D01*
X85748747Y-26551000D01*
X85255902Y-26452967D01*
X84791650Y-26260668D01*
X84791649Y-26260668D01*
X84791648Y-26260667D01*
X84373832Y-25981491D01*
X84018509Y-25626168D01*
X83739333Y-25208352D01*
X83739332Y-25208350D01*
X83547033Y-24744098D01*
X83449000Y-24251253D01*
X83449000Y-23748747D01*
X83547033Y-23255902D01*
X83739332Y-22791650D01*
X83739333Y-22791648D01*
X84018509Y-22373832D01*
X84373832Y-22018509D01*
X84791648Y-21739333D01*
X84791650Y-21739332D01*
X85255902Y-21547033D01*
X85748747Y-21449000D01*
X86251253Y-21449000D01*
X86744098Y-21547033D01*
X86744098Y-21547033D01*
G37*
G36*
X24744098Y-21547033D02*
G01*
X25208350Y-21739332D01*
X25208352Y-21739333D01*
X25626168Y-22018509D01*
X25981491Y-22373832D01*
X26260667Y-22791648D01*
X26260668Y-22791650D01*
X26452967Y-23255902D01*
X26551000Y-23748747D01*
X26551000Y-24251253D01*
X26452967Y-24744098D01*
X26260668Y-25208350D01*
X26260667Y-25208352D01*
X25981491Y-25626168D01*
X25626168Y-25981491D01*
X25208352Y-26260667D01*
X25208351Y-26260668D01*
X25208350Y-26260668D01*
X24744098Y-26452967D01*
X24251253Y-26551000D01*
X23748747Y-26551000D01*
X23255902Y-26452967D01*
X22791650Y-26260668D01*
X22791649Y-26260668D01*
X22791648Y-26260667D01*
X22373832Y-25981491D01*
X22018509Y-25626168D01*
X21739333Y-25208352D01*
X21739332Y-25208350D01*
X21547033Y-24744098D01*
X21449000Y-24251253D01*
X21449000Y-23748747D01*
X21547033Y-23255902D01*
X21739332Y-22791650D01*
X21739333Y-22791648D01*
X22018509Y-22373832D01*
X22373832Y-22018509D01*
X22791648Y-21739333D01*
X22791650Y-21739332D01*
X23255902Y-21547033D01*
X23748747Y-21449000D01*
X24251253Y-21449000D01*
X24744098Y-21547033D01*
X24744098Y-21547033D01*
G37*
M02*
