G04 #@! TF.GenerationSoftware,KiCad,Pcbnew,(5.1.2)-2*
G04 #@! TF.CreationDate,2020-01-06T22:07:24+01:00*
G04 #@! TF.ProjectId,psu,7073752e-6b69-4636-9164-5f7063625858,rev?*
G04 #@! TF.SameCoordinates,Original*
G04 #@! TF.FileFunction,Legend,Top*
G04 #@! TF.FilePolarity,Positive*
%FSLAX46Y46*%
G04 Gerber Fmt 4.6, Leading zero omitted, Abs format (unit mm)*
G04 Created by KiCad (PCBNEW (5.1.2)-2) date 2020-01-06 22:07:24*
%MOMM*%
%LPD*%
G04 APERTURE LIST*
%ADD10C,0.150000*%
%ADD11C,0.120000*%
G04 APERTURE END LIST*
D10*
X85627380Y-59476190D02*
X84627380Y-59476190D01*
X84627380Y-59238095D01*
X84675000Y-59095238D01*
X84770238Y-59000000D01*
X84865476Y-58952380D01*
X85055952Y-58904761D01*
X85198809Y-58904761D01*
X85389285Y-58952380D01*
X85484523Y-59000000D01*
X85579761Y-59095238D01*
X85627380Y-59238095D01*
X85627380Y-59476190D01*
X84960714Y-58047619D02*
X85627380Y-58047619D01*
X84960714Y-58476190D02*
X85484523Y-58476190D01*
X85579761Y-58428571D01*
X85627380Y-58333333D01*
X85627380Y-58190476D01*
X85579761Y-58095238D01*
X85532142Y-58047619D01*
X85627380Y-57142857D02*
X85103571Y-57142857D01*
X85008333Y-57190476D01*
X84960714Y-57285714D01*
X84960714Y-57476190D01*
X85008333Y-57571428D01*
X85579761Y-57142857D02*
X85627380Y-57238095D01*
X85627380Y-57476190D01*
X85579761Y-57571428D01*
X85484523Y-57619047D01*
X85389285Y-57619047D01*
X85294047Y-57571428D01*
X85246428Y-57476190D01*
X85246428Y-57238095D01*
X85198809Y-57142857D01*
X85627380Y-56523809D02*
X85579761Y-56619047D01*
X85484523Y-56666666D01*
X84627380Y-56666666D01*
X85627380Y-54904761D02*
X85627380Y-55380952D01*
X84627380Y-55380952D01*
X85627380Y-54571428D02*
X84960714Y-54571428D01*
X84627380Y-54571428D02*
X84675000Y-54619047D01*
X84722619Y-54571428D01*
X84675000Y-54523809D01*
X84627380Y-54571428D01*
X84722619Y-54571428D01*
X84960714Y-54095238D02*
X85627380Y-54095238D01*
X85055952Y-54095238D02*
X85008333Y-54047619D01*
X84960714Y-53952380D01*
X84960714Y-53809523D01*
X85008333Y-53714285D01*
X85103571Y-53666666D01*
X85627380Y-53666666D01*
X85579761Y-52809523D02*
X85627380Y-52904761D01*
X85627380Y-53095238D01*
X85579761Y-53190476D01*
X85484523Y-53238095D01*
X85103571Y-53238095D01*
X85008333Y-53190476D01*
X84960714Y-53095238D01*
X84960714Y-52904761D01*
X85008333Y-52809523D01*
X85103571Y-52761904D01*
X85198809Y-52761904D01*
X85294047Y-53238095D01*
X85627380Y-51904761D02*
X85103571Y-51904761D01*
X85008333Y-51952380D01*
X84960714Y-52047619D01*
X84960714Y-52238095D01*
X85008333Y-52333333D01*
X85579761Y-51904761D02*
X85627380Y-52000000D01*
X85627380Y-52238095D01*
X85579761Y-52333333D01*
X85484523Y-52380952D01*
X85389285Y-52380952D01*
X85294047Y-52333333D01*
X85246428Y-52238095D01*
X85246428Y-52000000D01*
X85198809Y-51904761D01*
X85627380Y-51428571D02*
X84960714Y-51428571D01*
X85151190Y-51428571D02*
X85055952Y-51380952D01*
X85008333Y-51333333D01*
X84960714Y-51238095D01*
X84960714Y-51142857D01*
X85627380Y-50047619D02*
X84627380Y-50047619D01*
X84627380Y-49666666D01*
X84675000Y-49571428D01*
X84722619Y-49523809D01*
X84817857Y-49476190D01*
X84960714Y-49476190D01*
X85055952Y-49523809D01*
X85103571Y-49571428D01*
X85151190Y-49666666D01*
X85151190Y-50047619D01*
X85627380Y-48904761D02*
X85579761Y-49000000D01*
X85532142Y-49047619D01*
X85436904Y-49095238D01*
X85151190Y-49095238D01*
X85055952Y-49047619D01*
X85008333Y-49000000D01*
X84960714Y-48904761D01*
X84960714Y-48761904D01*
X85008333Y-48666666D01*
X85055952Y-48619047D01*
X85151190Y-48571428D01*
X85436904Y-48571428D01*
X85532142Y-48619047D01*
X85579761Y-48666666D01*
X85627380Y-48761904D01*
X85627380Y-48904761D01*
X84960714Y-48238095D02*
X85627380Y-48047619D01*
X85151190Y-47857142D01*
X85627380Y-47666666D01*
X84960714Y-47476190D01*
X85579761Y-46714285D02*
X85627380Y-46809523D01*
X85627380Y-47000000D01*
X85579761Y-47095238D01*
X85484523Y-47142857D01*
X85103571Y-47142857D01*
X85008333Y-47095238D01*
X84960714Y-47000000D01*
X84960714Y-46809523D01*
X85008333Y-46714285D01*
X85103571Y-46666666D01*
X85198809Y-46666666D01*
X85294047Y-47142857D01*
X85627380Y-46238095D02*
X84960714Y-46238095D01*
X85151190Y-46238095D02*
X85055952Y-46190476D01*
X85008333Y-46142857D01*
X84960714Y-46047619D01*
X84960714Y-45952380D01*
X85579761Y-44904761D02*
X85627380Y-44761904D01*
X85627380Y-44523809D01*
X85579761Y-44428571D01*
X85532142Y-44380952D01*
X85436904Y-44333333D01*
X85341666Y-44333333D01*
X85246428Y-44380952D01*
X85198809Y-44428571D01*
X85151190Y-44523809D01*
X85103571Y-44714285D01*
X85055952Y-44809523D01*
X85008333Y-44857142D01*
X84913095Y-44904761D01*
X84817857Y-44904761D01*
X84722619Y-44857142D01*
X84675000Y-44809523D01*
X84627380Y-44714285D01*
X84627380Y-44476190D01*
X84675000Y-44333333D01*
X84960714Y-43476190D02*
X85627380Y-43476190D01*
X84960714Y-43904761D02*
X85484523Y-43904761D01*
X85579761Y-43857142D01*
X85627380Y-43761904D01*
X85627380Y-43619047D01*
X85579761Y-43523809D01*
X85532142Y-43476190D01*
X84960714Y-43000000D02*
X85960714Y-43000000D01*
X85008333Y-43000000D02*
X84960714Y-42904761D01*
X84960714Y-42714285D01*
X85008333Y-42619047D01*
X85055952Y-42571428D01*
X85151190Y-42523809D01*
X85436904Y-42523809D01*
X85532142Y-42571428D01*
X85579761Y-42619047D01*
X85627380Y-42714285D01*
X85627380Y-42904761D01*
X85579761Y-43000000D01*
X84960714Y-42095238D02*
X85960714Y-42095238D01*
X85008333Y-42095238D02*
X84960714Y-42000000D01*
X84960714Y-41809523D01*
X85008333Y-41714285D01*
X85055952Y-41666666D01*
X85151190Y-41619047D01*
X85436904Y-41619047D01*
X85532142Y-41666666D01*
X85579761Y-41714285D01*
X85627380Y-41809523D01*
X85627380Y-42000000D01*
X85579761Y-42095238D01*
X85627380Y-41047619D02*
X85579761Y-41142857D01*
X85484523Y-41190476D01*
X84627380Y-41190476D01*
X84960714Y-40761904D02*
X85627380Y-40523809D01*
X84960714Y-40285714D02*
X85627380Y-40523809D01*
X85865476Y-40619047D01*
X85913095Y-40666666D01*
X85960714Y-40761904D01*
X85627380Y-38666666D02*
X85627380Y-39142857D01*
X84627380Y-39142857D01*
X85627380Y-38333333D02*
X84627380Y-38333333D01*
X85341666Y-38000000D01*
X84627380Y-37666666D01*
X85627380Y-37666666D01*
X85627380Y-36666666D02*
X85627380Y-37238095D01*
X85627380Y-36952380D02*
X84627380Y-36952380D01*
X84770238Y-37047619D01*
X84865476Y-37142857D01*
X84913095Y-37238095D01*
X85055952Y-36095238D02*
X85008333Y-36190476D01*
X84960714Y-36238095D01*
X84865476Y-36285714D01*
X84817857Y-36285714D01*
X84722619Y-36238095D01*
X84675000Y-36190476D01*
X84627380Y-36095238D01*
X84627380Y-35904761D01*
X84675000Y-35809523D01*
X84722619Y-35761904D01*
X84817857Y-35714285D01*
X84865476Y-35714285D01*
X84960714Y-35761904D01*
X85008333Y-35809523D01*
X85055952Y-35904761D01*
X85055952Y-36095238D01*
X85103571Y-36190476D01*
X85151190Y-36238095D01*
X85246428Y-36285714D01*
X85436904Y-36285714D01*
X85532142Y-36238095D01*
X85579761Y-36190476D01*
X85627380Y-36095238D01*
X85627380Y-35904761D01*
X85579761Y-35809523D01*
X85532142Y-35761904D01*
X85436904Y-35714285D01*
X85246428Y-35714285D01*
X85151190Y-35761904D01*
X85103571Y-35809523D01*
X85055952Y-35904761D01*
X84627380Y-35095238D02*
X84627380Y-35000000D01*
X84675000Y-34904761D01*
X84722619Y-34857142D01*
X84817857Y-34809523D01*
X85008333Y-34761904D01*
X85246428Y-34761904D01*
X85436904Y-34809523D01*
X85532142Y-34857142D01*
X85579761Y-34904761D01*
X85627380Y-35000000D01*
X85627380Y-35095238D01*
X85579761Y-35190476D01*
X85532142Y-35238095D01*
X85436904Y-35285714D01*
X85246428Y-35333333D01*
X85008333Y-35333333D01*
X84817857Y-35285714D01*
X84722619Y-35238095D01*
X84675000Y-35190476D01*
X84627380Y-35095238D01*
X85627380Y-34428571D02*
X84960714Y-33904761D01*
X84960714Y-34428571D02*
X85627380Y-33904761D01*
X84960714Y-32857142D02*
X85627380Y-32619047D01*
X84960714Y-32380952D01*
X85627380Y-31476190D02*
X85627380Y-32047619D01*
X85627380Y-31761904D02*
X84627380Y-31761904D01*
X84770238Y-31857142D01*
X84865476Y-31952380D01*
X84913095Y-32047619D01*
X87277380Y-50761904D02*
X86277380Y-50761904D01*
X86277380Y-50523809D01*
X86325000Y-50380952D01*
X86420238Y-50285714D01*
X86515476Y-50238095D01*
X86705952Y-50190476D01*
X86848809Y-50190476D01*
X87039285Y-50238095D01*
X87134523Y-50285714D01*
X87229761Y-50380952D01*
X87277380Y-50523809D01*
X87277380Y-50761904D01*
X87229761Y-49380952D02*
X87277380Y-49476190D01*
X87277380Y-49666666D01*
X87229761Y-49761904D01*
X87134523Y-49809523D01*
X86753571Y-49809523D01*
X86658333Y-49761904D01*
X86610714Y-49666666D01*
X86610714Y-49476190D01*
X86658333Y-49380952D01*
X86753571Y-49333333D01*
X86848809Y-49333333D01*
X86944047Y-49809523D01*
X87229761Y-48952380D02*
X87277380Y-48857142D01*
X87277380Y-48666666D01*
X87229761Y-48571428D01*
X87134523Y-48523809D01*
X87086904Y-48523809D01*
X86991666Y-48571428D01*
X86944047Y-48666666D01*
X86944047Y-48809523D01*
X86896428Y-48904761D01*
X86801190Y-48952380D01*
X86753571Y-48952380D01*
X86658333Y-48904761D01*
X86610714Y-48809523D01*
X86610714Y-48666666D01*
X86658333Y-48571428D01*
X87277380Y-48095238D02*
X86610714Y-48095238D01*
X86277380Y-48095238D02*
X86325000Y-48142857D01*
X86372619Y-48095238D01*
X86325000Y-48047619D01*
X86277380Y-48095238D01*
X86372619Y-48095238D01*
X86610714Y-47190476D02*
X87420238Y-47190476D01*
X87515476Y-47238095D01*
X87563095Y-47285714D01*
X87610714Y-47380952D01*
X87610714Y-47523809D01*
X87563095Y-47619047D01*
X87229761Y-47190476D02*
X87277380Y-47285714D01*
X87277380Y-47476190D01*
X87229761Y-47571428D01*
X87182142Y-47619047D01*
X87086904Y-47666666D01*
X86801190Y-47666666D01*
X86705952Y-47619047D01*
X86658333Y-47571428D01*
X86610714Y-47476190D01*
X86610714Y-47285714D01*
X86658333Y-47190476D01*
X86610714Y-46714285D02*
X87277380Y-46714285D01*
X86705952Y-46714285D02*
X86658333Y-46666666D01*
X86610714Y-46571428D01*
X86610714Y-46428571D01*
X86658333Y-46333333D01*
X86753571Y-46285714D01*
X87277380Y-46285714D01*
X87277380Y-45047619D02*
X86277380Y-45047619D01*
X86658333Y-45047619D02*
X86610714Y-44952380D01*
X86610714Y-44761904D01*
X86658333Y-44666666D01*
X86705952Y-44619047D01*
X86801190Y-44571428D01*
X87086904Y-44571428D01*
X87182142Y-44619047D01*
X87229761Y-44666666D01*
X87277380Y-44761904D01*
X87277380Y-44952380D01*
X87229761Y-45047619D01*
X86610714Y-44238095D02*
X87277380Y-44000000D01*
X86610714Y-43761904D02*
X87277380Y-44000000D01*
X87515476Y-44095238D01*
X87563095Y-44142857D01*
X87610714Y-44238095D01*
X87229761Y-42666666D02*
X87277380Y-42523809D01*
X87277380Y-42285714D01*
X87229761Y-42190476D01*
X87182142Y-42142857D01*
X87086904Y-42095238D01*
X86991666Y-42095238D01*
X86896428Y-42142857D01*
X86848809Y-42190476D01*
X86801190Y-42285714D01*
X86753571Y-42476190D01*
X86705952Y-42571428D01*
X86658333Y-42619047D01*
X86563095Y-42666666D01*
X86467857Y-42666666D01*
X86372619Y-42619047D01*
X86325000Y-42571428D01*
X86277380Y-42476190D01*
X86277380Y-42238095D01*
X86325000Y-42095238D01*
X86277380Y-41666666D02*
X87086904Y-41666666D01*
X87182142Y-41619047D01*
X87229761Y-41571428D01*
X87277380Y-41476190D01*
X87277380Y-41285714D01*
X87229761Y-41190476D01*
X87182142Y-41142857D01*
X87086904Y-41095238D01*
X86277380Y-41095238D01*
X86753571Y-40285714D02*
X86753571Y-40619047D01*
X87277380Y-40619047D02*
X86277380Y-40619047D01*
X86277380Y-40142857D01*
D11*
X46101563Y-39883264D02*
G75*
G03X55899357Y-39880000I4898437J1383264D01*
G01*
X46101563Y-37116736D02*
G75*
G02X55899357Y-37120000I4898437J-1383264D01*
G01*
X46101563Y-37116736D02*
G75*
G03X46100643Y-39880000I4898437J-1383264D01*
G01*
X51000000Y-43550000D02*
X51000000Y-33450000D01*
X50960000Y-43550000D02*
X50960000Y-33450000D01*
X50920000Y-43550000D02*
X50920000Y-33450000D01*
X50880000Y-43549000D02*
X50880000Y-33451000D01*
X50840000Y-43548000D02*
X50840000Y-33452000D01*
X50800000Y-43547000D02*
X50800000Y-33453000D01*
X50760000Y-43545000D02*
X50760000Y-33455000D01*
X50720000Y-43543000D02*
X50720000Y-33457000D01*
X50680000Y-43540000D02*
X50680000Y-33460000D01*
X50640000Y-43538000D02*
X50640000Y-33462000D01*
X50600000Y-43535000D02*
X50600000Y-33465000D01*
X50560000Y-43531000D02*
X50560000Y-33469000D01*
X50520000Y-43528000D02*
X50520000Y-33472000D01*
X50480000Y-43524000D02*
X50480000Y-33476000D01*
X50440000Y-43520000D02*
X50440000Y-33480000D01*
X50400000Y-43515000D02*
X50400000Y-33485000D01*
X50360000Y-43510000D02*
X50360000Y-33490000D01*
X50320000Y-43505000D02*
X50320000Y-33495000D01*
X50279000Y-43499000D02*
X50279000Y-33501000D01*
X50239000Y-43493000D02*
X50239000Y-33507000D01*
X50199000Y-43487000D02*
X50199000Y-33513000D01*
X50159000Y-43481000D02*
X50159000Y-33519000D01*
X50119000Y-43474000D02*
X50119000Y-33526000D01*
X50079000Y-43467000D02*
X50079000Y-33533000D01*
X50039000Y-43459000D02*
X50039000Y-33541000D01*
X49999000Y-43451000D02*
X49999000Y-33549000D01*
X49959000Y-43443000D02*
X49959000Y-33557000D01*
X49919000Y-43435000D02*
X49919000Y-33565000D01*
X49879000Y-43426000D02*
X49879000Y-33574000D01*
X49839000Y-43417000D02*
X49839000Y-33583000D01*
X49799000Y-43407000D02*
X49799000Y-33593000D01*
X49759000Y-43397000D02*
X49759000Y-33603000D01*
X49719000Y-43387000D02*
X49719000Y-33613000D01*
X49679000Y-43376000D02*
X49679000Y-39681000D01*
X49679000Y-37319000D02*
X49679000Y-33624000D01*
X49639000Y-43365000D02*
X49639000Y-39681000D01*
X49639000Y-37319000D02*
X49639000Y-33635000D01*
X49599000Y-43354000D02*
X49599000Y-39681000D01*
X49599000Y-37319000D02*
X49599000Y-33646000D01*
X49559000Y-43343000D02*
X49559000Y-39681000D01*
X49559000Y-37319000D02*
X49559000Y-33657000D01*
X49519000Y-43331000D02*
X49519000Y-39681000D01*
X49519000Y-37319000D02*
X49519000Y-33669000D01*
X49479000Y-43318000D02*
X49479000Y-39681000D01*
X49479000Y-37319000D02*
X49479000Y-33682000D01*
X49439000Y-43306000D02*
X49439000Y-39681000D01*
X49439000Y-37319000D02*
X49439000Y-33694000D01*
X49399000Y-43292000D02*
X49399000Y-39681000D01*
X49399000Y-37319000D02*
X49399000Y-33708000D01*
X49359000Y-43279000D02*
X49359000Y-39681000D01*
X49359000Y-37319000D02*
X49359000Y-33721000D01*
X49319000Y-43265000D02*
X49319000Y-39681000D01*
X49319000Y-37319000D02*
X49319000Y-33735000D01*
X49279000Y-43251000D02*
X49279000Y-39681000D01*
X49279000Y-37319000D02*
X49279000Y-33749000D01*
X49239000Y-43237000D02*
X49239000Y-39681000D01*
X49239000Y-37319000D02*
X49239000Y-33763000D01*
X49199000Y-43222000D02*
X49199000Y-39681000D01*
X49199000Y-37319000D02*
X49199000Y-33778000D01*
X49159000Y-43206000D02*
X49159000Y-39681000D01*
X49159000Y-37319000D02*
X49159000Y-33794000D01*
X49119000Y-43191000D02*
X49119000Y-39681000D01*
X49119000Y-37319000D02*
X49119000Y-33809000D01*
X49079000Y-43174000D02*
X49079000Y-39681000D01*
X49079000Y-37319000D02*
X49079000Y-33826000D01*
X49039000Y-43158000D02*
X49039000Y-39681000D01*
X49039000Y-37319000D02*
X49039000Y-33842000D01*
X48999000Y-43141000D02*
X48999000Y-39681000D01*
X48999000Y-35320000D02*
X48999000Y-33859000D01*
X48959000Y-43124000D02*
X48959000Y-39681000D01*
X48959000Y-35320000D02*
X48959000Y-33876000D01*
X48919000Y-43106000D02*
X48919000Y-39681000D01*
X48919000Y-35320000D02*
X48919000Y-33894000D01*
X48879000Y-43088000D02*
X48879000Y-39681000D01*
X48879000Y-35320000D02*
X48879000Y-33912000D01*
X48839000Y-43069000D02*
X48839000Y-39681000D01*
X48839000Y-35320000D02*
X48839000Y-33931000D01*
X48799000Y-43050000D02*
X48799000Y-39681000D01*
X48799000Y-35320000D02*
X48799000Y-33950000D01*
X48759000Y-43031000D02*
X48759000Y-39681000D01*
X48759000Y-35320000D02*
X48759000Y-33969000D01*
X48719000Y-43011000D02*
X48719000Y-39681000D01*
X48719000Y-35320000D02*
X48719000Y-33989000D01*
X48679000Y-42991000D02*
X48679000Y-39681000D01*
X48679000Y-35320000D02*
X48679000Y-34009000D01*
X48639000Y-42970000D02*
X48639000Y-39681000D01*
X48639000Y-35320000D02*
X48639000Y-34030000D01*
X48599000Y-42949000D02*
X48599000Y-39681000D01*
X48599000Y-35320000D02*
X48599000Y-34051000D01*
X48559000Y-42928000D02*
X48559000Y-39681000D01*
X48559000Y-35320000D02*
X48559000Y-34072000D01*
X48519000Y-42905000D02*
X48519000Y-39681000D01*
X48519000Y-35320000D02*
X48519000Y-34095000D01*
X48479000Y-42883000D02*
X48479000Y-39681000D01*
X48479000Y-35320000D02*
X48479000Y-34117000D01*
X48439000Y-42860000D02*
X48439000Y-39681000D01*
X48439000Y-35320000D02*
X48439000Y-34140000D01*
X48399000Y-42836000D02*
X48399000Y-39681000D01*
X48399000Y-35320000D02*
X48399000Y-34164000D01*
X48359000Y-42812000D02*
X48359000Y-39681000D01*
X48359000Y-35320000D02*
X48359000Y-34188000D01*
X48319000Y-42788000D02*
X48319000Y-39681000D01*
X48319000Y-35320000D02*
X48319000Y-34212000D01*
X48279000Y-42763000D02*
X48279000Y-39681000D01*
X48279000Y-35320000D02*
X48279000Y-34237000D01*
X48239000Y-42737000D02*
X48239000Y-39681000D01*
X48239000Y-35320000D02*
X48239000Y-34263000D01*
X48199000Y-42711000D02*
X48199000Y-39681000D01*
X48199000Y-35320000D02*
X48199000Y-34289000D01*
X48159000Y-42685000D02*
X48159000Y-39681000D01*
X48159000Y-35320000D02*
X48159000Y-34315000D01*
X48119000Y-42657000D02*
X48119000Y-39681000D01*
X48119000Y-35320000D02*
X48119000Y-34343000D01*
X48079000Y-42630000D02*
X48079000Y-39681000D01*
X48079000Y-35320000D02*
X48079000Y-34370000D01*
X48039000Y-42601000D02*
X48039000Y-39681000D01*
X48039000Y-35320000D02*
X48039000Y-34399000D01*
X47999000Y-42572000D02*
X47999000Y-39681000D01*
X47999000Y-35320000D02*
X47999000Y-34428000D01*
X47959000Y-42543000D02*
X47959000Y-39681000D01*
X47959000Y-35320000D02*
X47959000Y-34457000D01*
X47919000Y-42513000D02*
X47919000Y-39681000D01*
X47919000Y-35320000D02*
X47919000Y-34487000D01*
X47879000Y-42482000D02*
X47879000Y-39681000D01*
X47879000Y-35320000D02*
X47879000Y-34518000D01*
X47839000Y-42451000D02*
X47839000Y-39681000D01*
X47839000Y-35320000D02*
X47839000Y-34549000D01*
X47799000Y-42419000D02*
X47799000Y-39681000D01*
X47799000Y-35320000D02*
X47799000Y-34581000D01*
X47759000Y-42386000D02*
X47759000Y-39681000D01*
X47759000Y-35320000D02*
X47759000Y-34614000D01*
X47719000Y-42353000D02*
X47719000Y-39681000D01*
X47719000Y-35320000D02*
X47719000Y-34647000D01*
X47679000Y-42319000D02*
X47679000Y-39681000D01*
X47679000Y-35320000D02*
X47679000Y-34681000D01*
X47639000Y-42284000D02*
X47639000Y-39681000D01*
X47639000Y-35320000D02*
X47639000Y-34716000D01*
X47599000Y-42248000D02*
X47599000Y-39681000D01*
X47599000Y-35320000D02*
X47599000Y-34752000D01*
X47559000Y-42212000D02*
X47559000Y-39681000D01*
X47559000Y-35320000D02*
X47559000Y-34788000D01*
X47519000Y-42175000D02*
X47519000Y-39681000D01*
X47519000Y-35320000D02*
X47519000Y-34825000D01*
X47479000Y-42137000D02*
X47479000Y-39681000D01*
X47479000Y-35320000D02*
X47479000Y-34863000D01*
X47439000Y-42098000D02*
X47439000Y-39681000D01*
X47439000Y-35320000D02*
X47439000Y-34902000D01*
X47399000Y-42059000D02*
X47399000Y-39681000D01*
X47399000Y-35320000D02*
X47399000Y-34941000D01*
X47359000Y-42018000D02*
X47359000Y-39681000D01*
X47359000Y-35320000D02*
X47359000Y-34982000D01*
X47319000Y-41977000D02*
X47319000Y-37680000D01*
X47319000Y-35320000D02*
X47319000Y-35023000D01*
X47279000Y-41935000D02*
X47279000Y-37680000D01*
X47279000Y-35320000D02*
X47279000Y-35065000D01*
X47239000Y-41891000D02*
X47239000Y-37680000D01*
X47239000Y-35320000D02*
X47239000Y-35109000D01*
X47199000Y-41847000D02*
X47199000Y-37680000D01*
X47199000Y-35320000D02*
X47199000Y-35153000D01*
X47159000Y-41802000D02*
X47159000Y-37680000D01*
X47159000Y-35320000D02*
X47159000Y-35198000D01*
X47119000Y-41755000D02*
X47119000Y-37680000D01*
X47119000Y-35320000D02*
X47119000Y-35245000D01*
X47079000Y-41707000D02*
X47079000Y-37680000D01*
X47079000Y-35320000D02*
X47079000Y-35293000D01*
X47039000Y-41658000D02*
X47039000Y-37680000D01*
X46999000Y-41608000D02*
X46999000Y-37680000D01*
X46959000Y-41557000D02*
X46959000Y-37680000D01*
X46919000Y-41504000D02*
X46919000Y-37680000D01*
X46879000Y-41449000D02*
X46879000Y-37680000D01*
X46839000Y-41394000D02*
X46839000Y-37680000D01*
X46799000Y-41336000D02*
X46799000Y-37680000D01*
X46759000Y-41277000D02*
X46759000Y-37680000D01*
X46719000Y-41215000D02*
X46719000Y-37680000D01*
X46679000Y-41152000D02*
X46679000Y-37680000D01*
X46639000Y-41087000D02*
X46639000Y-35913000D01*
X46599000Y-41019000D02*
X46599000Y-35981000D01*
X46559000Y-40949000D02*
X46559000Y-36051000D01*
X46519000Y-40877000D02*
X46519000Y-36123000D01*
X46479000Y-40801000D02*
X46479000Y-36199000D01*
X46439000Y-40722000D02*
X46439000Y-36278000D01*
X46399000Y-40640000D02*
X46399000Y-36360000D01*
X46359000Y-40553000D02*
X46359000Y-36447000D01*
X46319000Y-40462000D02*
X46319000Y-36538000D01*
X46279000Y-40366000D02*
X46279000Y-36634000D01*
X46239000Y-40263000D02*
X46239000Y-36737000D01*
X46199000Y-40154000D02*
X46199000Y-36846000D01*
X46159000Y-40036000D02*
X46159000Y-36964000D01*
X46119000Y-39907000D02*
X46119000Y-37093000D01*
X46079000Y-39765000D02*
X46079000Y-37235000D01*
X46039000Y-39604000D02*
X46039000Y-37396000D01*
X45999000Y-39413000D02*
X45999000Y-37587000D01*
X45959000Y-39172000D02*
X45959000Y-37828000D01*
X45919000Y-38779000D02*
X45919000Y-38221000D01*
X56200000Y-38500000D02*
X54700000Y-38500000D01*
X55450000Y-39250000D02*
X55450000Y-37750000D01*
X55450000Y-52250000D02*
X55450000Y-50750000D01*
X56200000Y-51500000D02*
X54700000Y-51500000D01*
X45919000Y-51779000D02*
X45919000Y-51221000D01*
X45959000Y-52172000D02*
X45959000Y-50828000D01*
X45999000Y-52413000D02*
X45999000Y-50587000D01*
X46039000Y-52604000D02*
X46039000Y-50396000D01*
X46079000Y-52765000D02*
X46079000Y-50235000D01*
X46119000Y-52907000D02*
X46119000Y-50093000D01*
X46159000Y-53036000D02*
X46159000Y-49964000D01*
X46199000Y-53154000D02*
X46199000Y-49846000D01*
X46239000Y-53263000D02*
X46239000Y-49737000D01*
X46279000Y-53366000D02*
X46279000Y-49634000D01*
X46319000Y-53462000D02*
X46319000Y-49538000D01*
X46359000Y-53553000D02*
X46359000Y-49447000D01*
X46399000Y-53640000D02*
X46399000Y-49360000D01*
X46439000Y-53722000D02*
X46439000Y-49278000D01*
X46479000Y-53801000D02*
X46479000Y-49199000D01*
X46519000Y-53877000D02*
X46519000Y-49123000D01*
X46559000Y-53949000D02*
X46559000Y-49051000D01*
X46599000Y-54019000D02*
X46599000Y-48981000D01*
X46639000Y-54087000D02*
X46639000Y-48913000D01*
X46679000Y-54152000D02*
X46679000Y-50680000D01*
X46719000Y-54215000D02*
X46719000Y-50680000D01*
X46759000Y-54277000D02*
X46759000Y-50680000D01*
X46799000Y-54336000D02*
X46799000Y-50680000D01*
X46839000Y-54394000D02*
X46839000Y-50680000D01*
X46879000Y-54449000D02*
X46879000Y-50680000D01*
X46919000Y-54504000D02*
X46919000Y-50680000D01*
X46959000Y-54557000D02*
X46959000Y-50680000D01*
X46999000Y-54608000D02*
X46999000Y-50680000D01*
X47039000Y-54658000D02*
X47039000Y-50680000D01*
X47079000Y-48320000D02*
X47079000Y-48293000D01*
X47079000Y-54707000D02*
X47079000Y-50680000D01*
X47119000Y-48320000D02*
X47119000Y-48245000D01*
X47119000Y-54755000D02*
X47119000Y-50680000D01*
X47159000Y-48320000D02*
X47159000Y-48198000D01*
X47159000Y-54802000D02*
X47159000Y-50680000D01*
X47199000Y-48320000D02*
X47199000Y-48153000D01*
X47199000Y-54847000D02*
X47199000Y-50680000D01*
X47239000Y-48320000D02*
X47239000Y-48109000D01*
X47239000Y-54891000D02*
X47239000Y-50680000D01*
X47279000Y-48320000D02*
X47279000Y-48065000D01*
X47279000Y-54935000D02*
X47279000Y-50680000D01*
X47319000Y-48320000D02*
X47319000Y-48023000D01*
X47319000Y-54977000D02*
X47319000Y-50680000D01*
X47359000Y-48320000D02*
X47359000Y-47982000D01*
X47359000Y-55018000D02*
X47359000Y-52681000D01*
X47399000Y-48320000D02*
X47399000Y-47941000D01*
X47399000Y-55059000D02*
X47399000Y-52681000D01*
X47439000Y-48320000D02*
X47439000Y-47902000D01*
X47439000Y-55098000D02*
X47439000Y-52681000D01*
X47479000Y-48320000D02*
X47479000Y-47863000D01*
X47479000Y-55137000D02*
X47479000Y-52681000D01*
X47519000Y-48320000D02*
X47519000Y-47825000D01*
X47519000Y-55175000D02*
X47519000Y-52681000D01*
X47559000Y-48320000D02*
X47559000Y-47788000D01*
X47559000Y-55212000D02*
X47559000Y-52681000D01*
X47599000Y-48320000D02*
X47599000Y-47752000D01*
X47599000Y-55248000D02*
X47599000Y-52681000D01*
X47639000Y-48320000D02*
X47639000Y-47716000D01*
X47639000Y-55284000D02*
X47639000Y-52681000D01*
X47679000Y-48320000D02*
X47679000Y-47681000D01*
X47679000Y-55319000D02*
X47679000Y-52681000D01*
X47719000Y-48320000D02*
X47719000Y-47647000D01*
X47719000Y-55353000D02*
X47719000Y-52681000D01*
X47759000Y-48320000D02*
X47759000Y-47614000D01*
X47759000Y-55386000D02*
X47759000Y-52681000D01*
X47799000Y-48320000D02*
X47799000Y-47581000D01*
X47799000Y-55419000D02*
X47799000Y-52681000D01*
X47839000Y-48320000D02*
X47839000Y-47549000D01*
X47839000Y-55451000D02*
X47839000Y-52681000D01*
X47879000Y-48320000D02*
X47879000Y-47518000D01*
X47879000Y-55482000D02*
X47879000Y-52681000D01*
X47919000Y-48320000D02*
X47919000Y-47487000D01*
X47919000Y-55513000D02*
X47919000Y-52681000D01*
X47959000Y-48320000D02*
X47959000Y-47457000D01*
X47959000Y-55543000D02*
X47959000Y-52681000D01*
X47999000Y-48320000D02*
X47999000Y-47428000D01*
X47999000Y-55572000D02*
X47999000Y-52681000D01*
X48039000Y-48320000D02*
X48039000Y-47399000D01*
X48039000Y-55601000D02*
X48039000Y-52681000D01*
X48079000Y-48320000D02*
X48079000Y-47370000D01*
X48079000Y-55630000D02*
X48079000Y-52681000D01*
X48119000Y-48320000D02*
X48119000Y-47343000D01*
X48119000Y-55657000D02*
X48119000Y-52681000D01*
X48159000Y-48320000D02*
X48159000Y-47315000D01*
X48159000Y-55685000D02*
X48159000Y-52681000D01*
X48199000Y-48320000D02*
X48199000Y-47289000D01*
X48199000Y-55711000D02*
X48199000Y-52681000D01*
X48239000Y-48320000D02*
X48239000Y-47263000D01*
X48239000Y-55737000D02*
X48239000Y-52681000D01*
X48279000Y-48320000D02*
X48279000Y-47237000D01*
X48279000Y-55763000D02*
X48279000Y-52681000D01*
X48319000Y-48320000D02*
X48319000Y-47212000D01*
X48319000Y-55788000D02*
X48319000Y-52681000D01*
X48359000Y-48320000D02*
X48359000Y-47188000D01*
X48359000Y-55812000D02*
X48359000Y-52681000D01*
X48399000Y-48320000D02*
X48399000Y-47164000D01*
X48399000Y-55836000D02*
X48399000Y-52681000D01*
X48439000Y-48320000D02*
X48439000Y-47140000D01*
X48439000Y-55860000D02*
X48439000Y-52681000D01*
X48479000Y-48320000D02*
X48479000Y-47117000D01*
X48479000Y-55883000D02*
X48479000Y-52681000D01*
X48519000Y-48320000D02*
X48519000Y-47095000D01*
X48519000Y-55905000D02*
X48519000Y-52681000D01*
X48559000Y-48320000D02*
X48559000Y-47072000D01*
X48559000Y-55928000D02*
X48559000Y-52681000D01*
X48599000Y-48320000D02*
X48599000Y-47051000D01*
X48599000Y-55949000D02*
X48599000Y-52681000D01*
X48639000Y-48320000D02*
X48639000Y-47030000D01*
X48639000Y-55970000D02*
X48639000Y-52681000D01*
X48679000Y-48320000D02*
X48679000Y-47009000D01*
X48679000Y-55991000D02*
X48679000Y-52681000D01*
X48719000Y-48320000D02*
X48719000Y-46989000D01*
X48719000Y-56011000D02*
X48719000Y-52681000D01*
X48759000Y-48320000D02*
X48759000Y-46969000D01*
X48759000Y-56031000D02*
X48759000Y-52681000D01*
X48799000Y-48320000D02*
X48799000Y-46950000D01*
X48799000Y-56050000D02*
X48799000Y-52681000D01*
X48839000Y-48320000D02*
X48839000Y-46931000D01*
X48839000Y-56069000D02*
X48839000Y-52681000D01*
X48879000Y-48320000D02*
X48879000Y-46912000D01*
X48879000Y-56088000D02*
X48879000Y-52681000D01*
X48919000Y-48320000D02*
X48919000Y-46894000D01*
X48919000Y-56106000D02*
X48919000Y-52681000D01*
X48959000Y-48320000D02*
X48959000Y-46876000D01*
X48959000Y-56124000D02*
X48959000Y-52681000D01*
X48999000Y-48320000D02*
X48999000Y-46859000D01*
X48999000Y-56141000D02*
X48999000Y-52681000D01*
X49039000Y-50319000D02*
X49039000Y-46842000D01*
X49039000Y-56158000D02*
X49039000Y-52681000D01*
X49079000Y-50319000D02*
X49079000Y-46826000D01*
X49079000Y-56174000D02*
X49079000Y-52681000D01*
X49119000Y-50319000D02*
X49119000Y-46809000D01*
X49119000Y-56191000D02*
X49119000Y-52681000D01*
X49159000Y-50319000D02*
X49159000Y-46794000D01*
X49159000Y-56206000D02*
X49159000Y-52681000D01*
X49199000Y-50319000D02*
X49199000Y-46778000D01*
X49199000Y-56222000D02*
X49199000Y-52681000D01*
X49239000Y-50319000D02*
X49239000Y-46763000D01*
X49239000Y-56237000D02*
X49239000Y-52681000D01*
X49279000Y-50319000D02*
X49279000Y-46749000D01*
X49279000Y-56251000D02*
X49279000Y-52681000D01*
X49319000Y-50319000D02*
X49319000Y-46735000D01*
X49319000Y-56265000D02*
X49319000Y-52681000D01*
X49359000Y-50319000D02*
X49359000Y-46721000D01*
X49359000Y-56279000D02*
X49359000Y-52681000D01*
X49399000Y-50319000D02*
X49399000Y-46708000D01*
X49399000Y-56292000D02*
X49399000Y-52681000D01*
X49439000Y-50319000D02*
X49439000Y-46694000D01*
X49439000Y-56306000D02*
X49439000Y-52681000D01*
X49479000Y-50319000D02*
X49479000Y-46682000D01*
X49479000Y-56318000D02*
X49479000Y-52681000D01*
X49519000Y-50319000D02*
X49519000Y-46669000D01*
X49519000Y-56331000D02*
X49519000Y-52681000D01*
X49559000Y-50319000D02*
X49559000Y-46657000D01*
X49559000Y-56343000D02*
X49559000Y-52681000D01*
X49599000Y-50319000D02*
X49599000Y-46646000D01*
X49599000Y-56354000D02*
X49599000Y-52681000D01*
X49639000Y-50319000D02*
X49639000Y-46635000D01*
X49639000Y-56365000D02*
X49639000Y-52681000D01*
X49679000Y-50319000D02*
X49679000Y-46624000D01*
X49679000Y-56376000D02*
X49679000Y-52681000D01*
X49719000Y-56387000D02*
X49719000Y-46613000D01*
X49759000Y-56397000D02*
X49759000Y-46603000D01*
X49799000Y-56407000D02*
X49799000Y-46593000D01*
X49839000Y-56417000D02*
X49839000Y-46583000D01*
X49879000Y-56426000D02*
X49879000Y-46574000D01*
X49919000Y-56435000D02*
X49919000Y-46565000D01*
X49959000Y-56443000D02*
X49959000Y-46557000D01*
X49999000Y-56451000D02*
X49999000Y-46549000D01*
X50039000Y-56459000D02*
X50039000Y-46541000D01*
X50079000Y-56467000D02*
X50079000Y-46533000D01*
X50119000Y-56474000D02*
X50119000Y-46526000D01*
X50159000Y-56481000D02*
X50159000Y-46519000D01*
X50199000Y-56487000D02*
X50199000Y-46513000D01*
X50239000Y-56493000D02*
X50239000Y-46507000D01*
X50279000Y-56499000D02*
X50279000Y-46501000D01*
X50320000Y-56505000D02*
X50320000Y-46495000D01*
X50360000Y-56510000D02*
X50360000Y-46490000D01*
X50400000Y-56515000D02*
X50400000Y-46485000D01*
X50440000Y-56520000D02*
X50440000Y-46480000D01*
X50480000Y-56524000D02*
X50480000Y-46476000D01*
X50520000Y-56528000D02*
X50520000Y-46472000D01*
X50560000Y-56531000D02*
X50560000Y-46469000D01*
X50600000Y-56535000D02*
X50600000Y-46465000D01*
X50640000Y-56538000D02*
X50640000Y-46462000D01*
X50680000Y-56540000D02*
X50680000Y-46460000D01*
X50720000Y-56543000D02*
X50720000Y-46457000D01*
X50760000Y-56545000D02*
X50760000Y-46455000D01*
X50800000Y-56547000D02*
X50800000Y-46453000D01*
X50840000Y-56548000D02*
X50840000Y-46452000D01*
X50880000Y-56549000D02*
X50880000Y-46451000D01*
X50920000Y-56550000D02*
X50920000Y-46450000D01*
X50960000Y-56550000D02*
X50960000Y-46450000D01*
X51000000Y-56550000D02*
X51000000Y-46450000D01*
X46101563Y-50116736D02*
G75*
G03X46100643Y-52880000I4898437J-1383264D01*
G01*
X46101563Y-50116736D02*
G75*
G02X55899357Y-50120000I4898437J-1383264D01*
G01*
X46101563Y-52883264D02*
G75*
G03X55899357Y-52880000I4898437J1383264D01*
G01*
X79900000Y-54350000D02*
X79900000Y-53650000D01*
X81100000Y-53650000D02*
X81100000Y-54350000D01*
X68600000Y-53650000D02*
X68600000Y-54350000D01*
X67400000Y-54350000D02*
X67400000Y-53650000D01*
X71600000Y-63950000D02*
X71600000Y-54350000D01*
X76400000Y-63950000D02*
X76400000Y-54350000D01*
X71600000Y-63950000D02*
X76400000Y-63950000D01*
X59100000Y-63950000D02*
X63900000Y-63950000D01*
X63900000Y-63950000D02*
X63900000Y-54350000D01*
X59100000Y-63950000D02*
X59100000Y-54350000D01*
X57750000Y-31500000D02*
X51250000Y-31500000D01*
X57750000Y-31500000D02*
X57750000Y-21600000D01*
X51250000Y-31500000D02*
X51250000Y-21600000D01*
X50750000Y-20500000D02*
X50750000Y-30400000D01*
X44250000Y-20500000D02*
X44250000Y-30400000D01*
X44250000Y-20500000D02*
X50750000Y-20500000D01*
X36750000Y-55000000D02*
X36750000Y-64900000D01*
X30250000Y-55000000D02*
X30250000Y-64900000D01*
X30250000Y-55000000D02*
X36750000Y-55000000D01*
X43750000Y-66000000D02*
X37250000Y-66000000D01*
X43750000Y-66000000D02*
X43750000Y-56100000D01*
X37250000Y-66000000D02*
X37250000Y-56100000D01*
X36750000Y-35000000D02*
X30250000Y-35000000D01*
X36750000Y-35000000D02*
X36750000Y-25100000D01*
X30250000Y-35000000D02*
X30250000Y-25100000D01*
X43750000Y-24000000D02*
X43750000Y-33900000D01*
X37250000Y-24000000D02*
X37250000Y-33900000D01*
X37250000Y-24000000D02*
X43750000Y-24000000D01*
X51250000Y-58500000D02*
X57750000Y-58500000D01*
X51250000Y-58500000D02*
X51250000Y-68400000D01*
X57750000Y-58500000D02*
X57750000Y-68400000D01*
X44250000Y-69500000D02*
X44250000Y-59600000D01*
X50750000Y-69500000D02*
X50750000Y-59600000D01*
X50750000Y-69500000D02*
X44250000Y-69500000D01*
X29110000Y-33890000D02*
X16890000Y-33890000D01*
X16890000Y-33890000D02*
X16890000Y-56110000D01*
X16890000Y-56110000D02*
X29110000Y-56110000D01*
X29110000Y-56110000D02*
X29110000Y-33890000D01*
X18390000Y-33890000D02*
X20190000Y-33890000D01*
X20190000Y-33890000D02*
X20190000Y-56110000D01*
X20190000Y-56110000D02*
X18390000Y-56110000D01*
X18390000Y-56110000D02*
X18390000Y-33890000D01*
X16890000Y-36500000D02*
X16890000Y-38500000D01*
X16890000Y-38500000D02*
X18390000Y-38250000D01*
X18390000Y-38250000D02*
X18390000Y-36750000D01*
X18390000Y-36750000D02*
X16890000Y-36500000D01*
X16890000Y-41500000D02*
X16890000Y-43500000D01*
X16890000Y-43500000D02*
X18390000Y-43250000D01*
X18390000Y-43250000D02*
X18390000Y-41750000D01*
X18390000Y-41750000D02*
X16890000Y-41500000D01*
X16890000Y-46500000D02*
X16890000Y-48500000D01*
X16890000Y-48500000D02*
X18390000Y-48250000D01*
X18390000Y-48250000D02*
X18390000Y-46750000D01*
X18390000Y-46750000D02*
X16890000Y-46500000D01*
X16890000Y-51500000D02*
X16890000Y-53500000D01*
X16890000Y-53500000D02*
X18390000Y-53250000D01*
X18390000Y-53250000D02*
X18390000Y-51750000D01*
X18390000Y-51750000D02*
X16890000Y-51500000D01*
X29910000Y-37800000D02*
X29310000Y-37500000D01*
X29310000Y-37500000D02*
X29910000Y-37200000D01*
X29910000Y-37200000D02*
X29910000Y-37800000D01*
X78300000Y-29910000D02*
X77700000Y-29910000D01*
X78000000Y-29310000D02*
X78300000Y-29910000D01*
X77700000Y-29910000D02*
X78000000Y-29310000D01*
X63750000Y-18390000D02*
X64000000Y-16890000D01*
X62250000Y-18390000D02*
X63750000Y-18390000D01*
X62000000Y-16890000D02*
X62250000Y-18390000D01*
X64000000Y-16890000D02*
X62000000Y-16890000D01*
X68750000Y-18390000D02*
X69000000Y-16890000D01*
X67250000Y-18390000D02*
X68750000Y-18390000D01*
X67000000Y-16890000D02*
X67250000Y-18390000D01*
X69000000Y-16890000D02*
X67000000Y-16890000D01*
X73750000Y-18390000D02*
X74000000Y-16890000D01*
X72250000Y-18390000D02*
X73750000Y-18390000D01*
X72000000Y-16890000D02*
X72250000Y-18390000D01*
X74000000Y-16890000D02*
X72000000Y-16890000D01*
X78750000Y-18390000D02*
X79000000Y-16890000D01*
X77250000Y-18390000D02*
X78750000Y-18390000D01*
X77000000Y-16890000D02*
X77250000Y-18390000D01*
X79000000Y-16890000D02*
X77000000Y-16890000D01*
X59390000Y-18390000D02*
X81610000Y-18390000D01*
X59390000Y-20190000D02*
X59390000Y-18390000D01*
X81610000Y-20190000D02*
X59390000Y-20190000D01*
X81610000Y-18390000D02*
X81610000Y-20190000D01*
X59390000Y-29110000D02*
X81610000Y-29110000D01*
X59390000Y-16890000D02*
X59390000Y-29110000D01*
X81610000Y-16890000D02*
X59390000Y-16890000D01*
X81610000Y-29110000D02*
X81610000Y-16890000D01*
X68450000Y-33350000D02*
X65950000Y-33350000D01*
X68450000Y-35850000D02*
X68450000Y-33350000D01*
X61350000Y-35150000D02*
X61350000Y-33650000D01*
X60350000Y-35150000D02*
X61350000Y-35150000D01*
X67150000Y-35150000D02*
X67150000Y-33650000D01*
X68150000Y-35150000D02*
X67150000Y-35150000D01*
X60850000Y-36000000D02*
X60350000Y-36000000D01*
X60850000Y-37250000D02*
X60850000Y-36000000D01*
X67650000Y-37250000D02*
X60850000Y-37250000D01*
X67650000Y-36000000D02*
X67650000Y-37250000D01*
X68150000Y-36000000D02*
X67650000Y-36000000D01*
X60350000Y-37750000D02*
X68150000Y-37750000D01*
X60350000Y-33650000D02*
X60350000Y-37750000D01*
X68150000Y-33650000D02*
X60350000Y-33650000D01*
X68150000Y-37750000D02*
X68150000Y-33650000D01*
X31020000Y-46950000D02*
X31020000Y-43050000D01*
X33980000Y-43050000D02*
X33980000Y-46950000D01*
X77320000Y-54500000D02*
X77320000Y-53500000D01*
X78680000Y-53500000D02*
X78680000Y-54500000D01*
X64820000Y-54500000D02*
X64820000Y-53500000D01*
X66180000Y-53500000D02*
X66180000Y-54500000D01*
X78680000Y-61500000D02*
X78680000Y-62500000D01*
X77320000Y-62500000D02*
X77320000Y-61500000D01*
X64820000Y-62500000D02*
X64820000Y-61500000D01*
X66180000Y-61500000D02*
X66180000Y-62500000D01*
X41980000Y-43050000D02*
X41980000Y-46950000D01*
X39020000Y-46950000D02*
X39020000Y-43050000D01*
X66000000Y-30820000D02*
X67000000Y-30820000D01*
X67000000Y-32180000D02*
X66000000Y-32180000D01*
X74609000Y-70120000D02*
X74609000Y-68610000D01*
X78310000Y-70120000D02*
X78310000Y-68610000D01*
X81580000Y-68610000D02*
X71340000Y-68610000D01*
X71340000Y-70120000D02*
X71340000Y-65479000D01*
X81580000Y-70120000D02*
X81580000Y-65479000D01*
X81580000Y-65479000D02*
X71340000Y-65479000D01*
X81580000Y-70120000D02*
X71340000Y-70120000D01*
X69080000Y-70120000D02*
X58840000Y-70120000D01*
X69080000Y-65479000D02*
X58840000Y-65479000D01*
X69080000Y-70120000D02*
X69080000Y-65479000D01*
X58840000Y-70120000D02*
X58840000Y-65479000D01*
X69080000Y-68610000D02*
X58840000Y-68610000D01*
X65810000Y-70120000D02*
X65810000Y-68610000D01*
X62109000Y-70120000D02*
X62109000Y-68610000D01*
D10*
X56333333Y-43357142D02*
X56285714Y-43404761D01*
X56142857Y-43452380D01*
X56047619Y-43452380D01*
X55904761Y-43404761D01*
X55809523Y-43309523D01*
X55761904Y-43214285D01*
X55714285Y-43023809D01*
X55714285Y-42880952D01*
X55761904Y-42690476D01*
X55809523Y-42595238D01*
X55904761Y-42500000D01*
X56047619Y-42452380D01*
X56142857Y-42452380D01*
X56285714Y-42500000D01*
X56333333Y-42547619D01*
X57285714Y-43452380D02*
X56714285Y-43452380D01*
X57000000Y-43452380D02*
X57000000Y-42452380D01*
X56904761Y-42595238D01*
X56809523Y-42690476D01*
X56714285Y-42738095D01*
X56333333Y-47857142D02*
X56285714Y-47904761D01*
X56142857Y-47952380D01*
X56047619Y-47952380D01*
X55904761Y-47904761D01*
X55809523Y-47809523D01*
X55761904Y-47714285D01*
X55714285Y-47523809D01*
X55714285Y-47380952D01*
X55761904Y-47190476D01*
X55809523Y-47095238D01*
X55904761Y-47000000D01*
X56047619Y-46952380D01*
X56142857Y-46952380D01*
X56285714Y-47000000D01*
X56333333Y-47047619D01*
X56714285Y-47047619D02*
X56761904Y-47000000D01*
X56857142Y-46952380D01*
X57095238Y-46952380D01*
X57190476Y-47000000D01*
X57238095Y-47047619D01*
X57285714Y-47142857D01*
X57285714Y-47238095D01*
X57238095Y-47380952D01*
X56666666Y-47952380D01*
X57285714Y-47952380D01*
X80857142Y-51166666D02*
X80904761Y-51214285D01*
X80952380Y-51357142D01*
X80952380Y-51452380D01*
X80904761Y-51595238D01*
X80809523Y-51690476D01*
X80714285Y-51738095D01*
X80523809Y-51785714D01*
X80380952Y-51785714D01*
X80190476Y-51738095D01*
X80095238Y-51690476D01*
X80000000Y-51595238D01*
X79952380Y-51452380D01*
X79952380Y-51357142D01*
X80000000Y-51214285D01*
X80047619Y-51166666D01*
X79952380Y-50833333D02*
X79952380Y-50214285D01*
X80333333Y-50547619D01*
X80333333Y-50404761D01*
X80380952Y-50309523D01*
X80428571Y-50261904D01*
X80523809Y-50214285D01*
X80761904Y-50214285D01*
X80857142Y-50261904D01*
X80904761Y-50309523D01*
X80952380Y-50404761D01*
X80952380Y-50690476D01*
X80904761Y-50785714D01*
X80857142Y-50833333D01*
X68357142Y-51166666D02*
X68404761Y-51214285D01*
X68452380Y-51357142D01*
X68452380Y-51452380D01*
X68404761Y-51595238D01*
X68309523Y-51690476D01*
X68214285Y-51738095D01*
X68023809Y-51785714D01*
X67880952Y-51785714D01*
X67690476Y-51738095D01*
X67595238Y-51690476D01*
X67500000Y-51595238D01*
X67452380Y-51452380D01*
X67452380Y-51357142D01*
X67500000Y-51214285D01*
X67547619Y-51166666D01*
X67785714Y-50309523D02*
X68452380Y-50309523D01*
X67404761Y-50547619D02*
X68119047Y-50785714D01*
X68119047Y-50166666D01*
X74357142Y-51166666D02*
X74404761Y-51214285D01*
X74452380Y-51357142D01*
X74452380Y-51452380D01*
X74404761Y-51595238D01*
X74309523Y-51690476D01*
X74214285Y-51738095D01*
X74023809Y-51785714D01*
X73880952Y-51785714D01*
X73690476Y-51738095D01*
X73595238Y-51690476D01*
X73500000Y-51595238D01*
X73452380Y-51452380D01*
X73452380Y-51357142D01*
X73500000Y-51214285D01*
X73547619Y-51166666D01*
X73452380Y-50261904D02*
X73452380Y-50738095D01*
X73928571Y-50785714D01*
X73880952Y-50738095D01*
X73833333Y-50642857D01*
X73833333Y-50404761D01*
X73880952Y-50309523D01*
X73928571Y-50261904D01*
X74023809Y-50214285D01*
X74261904Y-50214285D01*
X74357142Y-50261904D01*
X74404761Y-50309523D01*
X74452380Y-50404761D01*
X74452380Y-50642857D01*
X74404761Y-50738095D01*
X74357142Y-50785714D01*
X61857142Y-51166666D02*
X61904761Y-51214285D01*
X61952380Y-51357142D01*
X61952380Y-51452380D01*
X61904761Y-51595238D01*
X61809523Y-51690476D01*
X61714285Y-51738095D01*
X61523809Y-51785714D01*
X61380952Y-51785714D01*
X61190476Y-51738095D01*
X61095238Y-51690476D01*
X61000000Y-51595238D01*
X60952380Y-51452380D01*
X60952380Y-51357142D01*
X61000000Y-51214285D01*
X61047619Y-51166666D01*
X60952380Y-50309523D02*
X60952380Y-50500000D01*
X61000000Y-50595238D01*
X61047619Y-50642857D01*
X61190476Y-50738095D01*
X61380952Y-50785714D01*
X61761904Y-50785714D01*
X61857142Y-50738095D01*
X61904761Y-50690476D01*
X61952380Y-50595238D01*
X61952380Y-50404761D01*
X61904761Y-50309523D01*
X61857142Y-50261904D01*
X61761904Y-50214285D01*
X61523809Y-50214285D01*
X61428571Y-50261904D01*
X61380952Y-50309523D01*
X61333333Y-50404761D01*
X61333333Y-50595238D01*
X61380952Y-50690476D01*
X61428571Y-50738095D01*
X61523809Y-50785714D01*
X53761904Y-32952380D02*
X53761904Y-31952380D01*
X54000000Y-31952380D01*
X54142857Y-32000000D01*
X54238095Y-32095238D01*
X54285714Y-32190476D01*
X54333333Y-32380952D01*
X54333333Y-32523809D01*
X54285714Y-32714285D01*
X54238095Y-32809523D01*
X54142857Y-32904761D01*
X54000000Y-32952380D01*
X53761904Y-32952380D01*
X55285714Y-32952380D02*
X54714285Y-32952380D01*
X55000000Y-32952380D02*
X55000000Y-31952380D01*
X54904761Y-32095238D01*
X54809523Y-32190476D01*
X54714285Y-32238095D01*
X46761904Y-32952380D02*
X46761904Y-31952380D01*
X47000000Y-31952380D01*
X47142857Y-32000000D01*
X47238095Y-32095238D01*
X47285714Y-32190476D01*
X47333333Y-32380952D01*
X47333333Y-32523809D01*
X47285714Y-32714285D01*
X47238095Y-32809523D01*
X47142857Y-32904761D01*
X47000000Y-32952380D01*
X46761904Y-32952380D01*
X47714285Y-32047619D02*
X47761904Y-32000000D01*
X47857142Y-31952380D01*
X48095238Y-31952380D01*
X48190476Y-32000000D01*
X48238095Y-32047619D01*
X48285714Y-32142857D01*
X48285714Y-32238095D01*
X48238095Y-32380952D01*
X47666666Y-32952380D01*
X48285714Y-32952380D01*
X32761904Y-67452380D02*
X32761904Y-66452380D01*
X33000000Y-66452380D01*
X33142857Y-66500000D01*
X33238095Y-66595238D01*
X33285714Y-66690476D01*
X33333333Y-66880952D01*
X33333333Y-67023809D01*
X33285714Y-67214285D01*
X33238095Y-67309523D01*
X33142857Y-67404761D01*
X33000000Y-67452380D01*
X32761904Y-67452380D01*
X33666666Y-66452380D02*
X34285714Y-66452380D01*
X33952380Y-66833333D01*
X34095238Y-66833333D01*
X34190476Y-66880952D01*
X34238095Y-66928571D01*
X34285714Y-67023809D01*
X34285714Y-67261904D01*
X34238095Y-67357142D01*
X34190476Y-67404761D01*
X34095238Y-67452380D01*
X33809523Y-67452380D01*
X33714285Y-67404761D01*
X33666666Y-67357142D01*
X39761904Y-67452380D02*
X39761904Y-66452380D01*
X40000000Y-66452380D01*
X40142857Y-66500000D01*
X40238095Y-66595238D01*
X40285714Y-66690476D01*
X40333333Y-66880952D01*
X40333333Y-67023809D01*
X40285714Y-67214285D01*
X40238095Y-67309523D01*
X40142857Y-67404761D01*
X40000000Y-67452380D01*
X39761904Y-67452380D01*
X41190476Y-66785714D02*
X41190476Y-67452380D01*
X40952380Y-66404761D02*
X40714285Y-67119047D01*
X41333333Y-67119047D01*
X32761904Y-23452380D02*
X32761904Y-22452380D01*
X33000000Y-22452380D01*
X33142857Y-22500000D01*
X33238095Y-22595238D01*
X33285714Y-22690476D01*
X33333333Y-22880952D01*
X33333333Y-23023809D01*
X33285714Y-23214285D01*
X33238095Y-23309523D01*
X33142857Y-23404761D01*
X33000000Y-23452380D01*
X32761904Y-23452380D01*
X34238095Y-22452380D02*
X33761904Y-22452380D01*
X33714285Y-22928571D01*
X33761904Y-22880952D01*
X33857142Y-22833333D01*
X34095238Y-22833333D01*
X34190476Y-22880952D01*
X34238095Y-22928571D01*
X34285714Y-23023809D01*
X34285714Y-23261904D01*
X34238095Y-23357142D01*
X34190476Y-23404761D01*
X34095238Y-23452380D01*
X33857142Y-23452380D01*
X33761904Y-23404761D01*
X33714285Y-23357142D01*
X39761904Y-23452380D02*
X39761904Y-22452380D01*
X40000000Y-22452380D01*
X40142857Y-22500000D01*
X40238095Y-22595238D01*
X40285714Y-22690476D01*
X40333333Y-22880952D01*
X40333333Y-23023809D01*
X40285714Y-23214285D01*
X40238095Y-23309523D01*
X40142857Y-23404761D01*
X40000000Y-23452380D01*
X39761904Y-23452380D01*
X41190476Y-22452380D02*
X41000000Y-22452380D01*
X40904761Y-22500000D01*
X40857142Y-22547619D01*
X40761904Y-22690476D01*
X40714285Y-22880952D01*
X40714285Y-23261904D01*
X40761904Y-23357142D01*
X40809523Y-23404761D01*
X40904761Y-23452380D01*
X41095238Y-23452380D01*
X41190476Y-23404761D01*
X41238095Y-23357142D01*
X41285714Y-23261904D01*
X41285714Y-23023809D01*
X41238095Y-22928571D01*
X41190476Y-22880952D01*
X41095238Y-22833333D01*
X40904761Y-22833333D01*
X40809523Y-22880952D01*
X40761904Y-22928571D01*
X40714285Y-23023809D01*
X53761904Y-57952380D02*
X53761904Y-56952380D01*
X54000000Y-56952380D01*
X54142857Y-57000000D01*
X54238095Y-57095238D01*
X54285714Y-57190476D01*
X54333333Y-57380952D01*
X54333333Y-57523809D01*
X54285714Y-57714285D01*
X54238095Y-57809523D01*
X54142857Y-57904761D01*
X54000000Y-57952380D01*
X53761904Y-57952380D01*
X54666666Y-56952380D02*
X55333333Y-56952380D01*
X54904761Y-57952380D01*
X46761904Y-57952380D02*
X46761904Y-56952380D01*
X47000000Y-56952380D01*
X47142857Y-57000000D01*
X47238095Y-57095238D01*
X47285714Y-57190476D01*
X47333333Y-57380952D01*
X47333333Y-57523809D01*
X47285714Y-57714285D01*
X47238095Y-57809523D01*
X47142857Y-57904761D01*
X47000000Y-57952380D01*
X46761904Y-57952380D01*
X47904761Y-57380952D02*
X47809523Y-57333333D01*
X47761904Y-57285714D01*
X47714285Y-57190476D01*
X47714285Y-57142857D01*
X47761904Y-57047619D01*
X47809523Y-57000000D01*
X47904761Y-56952380D01*
X48095238Y-56952380D01*
X48190476Y-57000000D01*
X48238095Y-57047619D01*
X48285714Y-57142857D01*
X48285714Y-57190476D01*
X48238095Y-57285714D01*
X48190476Y-57333333D01*
X48095238Y-57380952D01*
X47904761Y-57380952D01*
X47809523Y-57428571D01*
X47761904Y-57476190D01*
X47714285Y-57571428D01*
X47714285Y-57761904D01*
X47761904Y-57857142D01*
X47809523Y-57904761D01*
X47904761Y-57952380D01*
X48095238Y-57952380D01*
X48190476Y-57904761D01*
X48238095Y-57857142D01*
X48285714Y-57761904D01*
X48285714Y-57571428D01*
X48238095Y-57476190D01*
X48190476Y-57428571D01*
X48095238Y-57380952D01*
X29452380Y-53333333D02*
X30166666Y-53333333D01*
X30309523Y-53380952D01*
X30404761Y-53476190D01*
X30452380Y-53619047D01*
X30452380Y-53714285D01*
X30452380Y-52333333D02*
X30452380Y-52904761D01*
X30452380Y-52619047D02*
X29452380Y-52619047D01*
X29595238Y-52714285D01*
X29690476Y-52809523D01*
X29738095Y-52904761D01*
X30452380Y-41333333D02*
X29452380Y-41333333D01*
X29452380Y-40952380D01*
X29500000Y-40857142D01*
X29547619Y-40809523D01*
X29642857Y-40761904D01*
X29785714Y-40761904D01*
X29880952Y-40809523D01*
X29928571Y-40857142D01*
X29976190Y-40952380D01*
X29976190Y-41333333D01*
X29452380Y-40428571D02*
X30452380Y-40190476D01*
X29738095Y-40000000D01*
X30452380Y-39809523D01*
X29452380Y-39571428D01*
X30452380Y-38619047D02*
X29976190Y-38952380D01*
X30452380Y-39190476D02*
X29452380Y-39190476D01*
X29452380Y-38809523D01*
X29500000Y-38714285D01*
X29547619Y-38666666D01*
X29642857Y-38619047D01*
X29785714Y-38619047D01*
X29880952Y-38666666D01*
X29928571Y-38714285D01*
X29976190Y-38809523D01*
X29976190Y-39190476D01*
X59666666Y-29952380D02*
X59666666Y-30666666D01*
X59619047Y-30809523D01*
X59523809Y-30904761D01*
X59380952Y-30952380D01*
X59285714Y-30952380D01*
X60095238Y-30047619D02*
X60142857Y-30000000D01*
X60238095Y-29952380D01*
X60476190Y-29952380D01*
X60571428Y-30000000D01*
X60619047Y-30047619D01*
X60666666Y-30142857D01*
X60666666Y-30238095D01*
X60619047Y-30380952D01*
X60047619Y-30952380D01*
X60666666Y-30952380D01*
X73000000Y-29952380D02*
X73190476Y-29952380D01*
X73285714Y-30000000D01*
X73380952Y-30095238D01*
X73428571Y-30285714D01*
X73428571Y-30619047D01*
X73380952Y-30809523D01*
X73285714Y-30904761D01*
X73190476Y-30952380D01*
X73000000Y-30952380D01*
X72904761Y-30904761D01*
X72809523Y-30809523D01*
X72761904Y-30619047D01*
X72761904Y-30285714D01*
X72809523Y-30095238D01*
X72904761Y-30000000D01*
X73000000Y-29952380D01*
X73857142Y-29952380D02*
X73857142Y-30761904D01*
X73904761Y-30857142D01*
X73952380Y-30904761D01*
X74047619Y-30952380D01*
X74238095Y-30952380D01*
X74333333Y-30904761D01*
X74380952Y-30857142D01*
X74428571Y-30761904D01*
X74428571Y-29952380D01*
X74761904Y-29952380D02*
X75333333Y-29952380D01*
X75047619Y-30952380D02*
X75047619Y-29952380D01*
X68952380Y-36333333D02*
X69666666Y-36333333D01*
X69809523Y-36380952D01*
X69904761Y-36476190D01*
X69952380Y-36619047D01*
X69952380Y-36714285D01*
X68952380Y-35952380D02*
X68952380Y-35333333D01*
X69333333Y-35666666D01*
X69333333Y-35523809D01*
X69380952Y-35428571D01*
X69428571Y-35380952D01*
X69523809Y-35333333D01*
X69761904Y-35333333D01*
X69857142Y-35380952D01*
X69904761Y-35428571D01*
X69952380Y-35523809D01*
X69952380Y-35809523D01*
X69904761Y-35904761D01*
X69857142Y-35952380D01*
X61178571Y-39952380D02*
X61178571Y-38952380D01*
X61559523Y-38952380D01*
X61654761Y-39000000D01*
X61702380Y-39047619D01*
X61750000Y-39142857D01*
X61750000Y-39285714D01*
X61702380Y-39380952D01*
X61654761Y-39428571D01*
X61559523Y-39476190D01*
X61178571Y-39476190D01*
X62083333Y-38952380D02*
X62321428Y-39952380D01*
X62511904Y-39238095D01*
X62702380Y-39952380D01*
X62940476Y-38952380D01*
X63892857Y-39952380D02*
X63559523Y-39476190D01*
X63321428Y-39952380D02*
X63321428Y-38952380D01*
X63702380Y-38952380D01*
X63797619Y-39000000D01*
X63845238Y-39047619D01*
X63892857Y-39142857D01*
X63892857Y-39285714D01*
X63845238Y-39380952D01*
X63797619Y-39428571D01*
X63702380Y-39476190D01*
X63321428Y-39476190D01*
X64083333Y-40047619D02*
X64845238Y-40047619D01*
X65559523Y-39952380D02*
X65083333Y-39952380D01*
X65083333Y-38952380D01*
X65892857Y-39428571D02*
X66226190Y-39428571D01*
X66369047Y-39952380D02*
X65892857Y-39952380D01*
X65892857Y-38952380D01*
X66369047Y-38952380D01*
X66797619Y-39952380D02*
X66797619Y-38952380D01*
X67035714Y-38952380D01*
X67178571Y-39000000D01*
X67273809Y-39095238D01*
X67321428Y-39190476D01*
X67369047Y-39380952D01*
X67369047Y-39523809D01*
X67321428Y-39714285D01*
X67273809Y-39809523D01*
X67178571Y-39904761D01*
X67035714Y-39952380D01*
X66797619Y-39952380D01*
X32952380Y-51166666D02*
X32476190Y-51500000D01*
X32952380Y-51738095D02*
X31952380Y-51738095D01*
X31952380Y-51357142D01*
X32000000Y-51261904D01*
X32047619Y-51214285D01*
X32142857Y-51166666D01*
X32285714Y-51166666D01*
X32380952Y-51214285D01*
X32428571Y-51261904D01*
X32476190Y-51357142D01*
X32476190Y-51738095D01*
X32952380Y-50214285D02*
X32952380Y-50785714D01*
X32952380Y-50500000D02*
X31952380Y-50500000D01*
X32095238Y-50595238D01*
X32190476Y-50690476D01*
X32238095Y-50785714D01*
X78452380Y-51166666D02*
X77976190Y-51500000D01*
X78452380Y-51738095D02*
X77452380Y-51738095D01*
X77452380Y-51357142D01*
X77500000Y-51261904D01*
X77547619Y-51214285D01*
X77642857Y-51166666D01*
X77785714Y-51166666D01*
X77880952Y-51214285D01*
X77928571Y-51261904D01*
X77976190Y-51357142D01*
X77976190Y-51738095D01*
X77547619Y-50785714D02*
X77500000Y-50738095D01*
X77452380Y-50642857D01*
X77452380Y-50404761D01*
X77500000Y-50309523D01*
X77547619Y-50261904D01*
X77642857Y-50214285D01*
X77738095Y-50214285D01*
X77880952Y-50261904D01*
X78452380Y-50833333D01*
X78452380Y-50214285D01*
X65952380Y-51166666D02*
X65476190Y-51500000D01*
X65952380Y-51738095D02*
X64952380Y-51738095D01*
X64952380Y-51357142D01*
X65000000Y-51261904D01*
X65047619Y-51214285D01*
X65142857Y-51166666D01*
X65285714Y-51166666D01*
X65380952Y-51214285D01*
X65428571Y-51261904D01*
X65476190Y-51357142D01*
X65476190Y-51738095D01*
X64952380Y-50833333D02*
X64952380Y-50214285D01*
X65333333Y-50547619D01*
X65333333Y-50404761D01*
X65380952Y-50309523D01*
X65428571Y-50261904D01*
X65523809Y-50214285D01*
X65761904Y-50214285D01*
X65857142Y-50261904D01*
X65904761Y-50309523D01*
X65952380Y-50404761D01*
X65952380Y-50690476D01*
X65904761Y-50785714D01*
X65857142Y-50833333D01*
X78452380Y-59166666D02*
X77976190Y-59500000D01*
X78452380Y-59738095D02*
X77452380Y-59738095D01*
X77452380Y-59357142D01*
X77500000Y-59261904D01*
X77547619Y-59214285D01*
X77642857Y-59166666D01*
X77785714Y-59166666D01*
X77880952Y-59214285D01*
X77928571Y-59261904D01*
X77976190Y-59357142D01*
X77976190Y-59738095D01*
X77785714Y-58309523D02*
X78452380Y-58309523D01*
X77404761Y-58547619D02*
X78119047Y-58785714D01*
X78119047Y-58166666D01*
X65952380Y-59166666D02*
X65476190Y-59500000D01*
X65952380Y-59738095D02*
X64952380Y-59738095D01*
X64952380Y-59357142D01*
X65000000Y-59261904D01*
X65047619Y-59214285D01*
X65142857Y-59166666D01*
X65285714Y-59166666D01*
X65380952Y-59214285D01*
X65428571Y-59261904D01*
X65476190Y-59357142D01*
X65476190Y-59738095D01*
X64952380Y-58261904D02*
X64952380Y-58738095D01*
X65428571Y-58785714D01*
X65380952Y-58738095D01*
X65333333Y-58642857D01*
X65333333Y-58404761D01*
X65380952Y-58309523D01*
X65428571Y-58261904D01*
X65523809Y-58214285D01*
X65761904Y-58214285D01*
X65857142Y-58261904D01*
X65904761Y-58309523D01*
X65952380Y-58404761D01*
X65952380Y-58642857D01*
X65904761Y-58738095D01*
X65857142Y-58785714D01*
X40952380Y-51166666D02*
X40476190Y-51500000D01*
X40952380Y-51738095D02*
X39952380Y-51738095D01*
X39952380Y-51357142D01*
X40000000Y-51261904D01*
X40047619Y-51214285D01*
X40142857Y-51166666D01*
X40285714Y-51166666D01*
X40380952Y-51214285D01*
X40428571Y-51261904D01*
X40476190Y-51357142D01*
X40476190Y-51738095D01*
X39952380Y-50309523D02*
X39952380Y-50500000D01*
X40000000Y-50595238D01*
X40047619Y-50642857D01*
X40190476Y-50738095D01*
X40380952Y-50785714D01*
X40761904Y-50785714D01*
X40857142Y-50738095D01*
X40904761Y-50690476D01*
X40952380Y-50595238D01*
X40952380Y-50404761D01*
X40904761Y-50309523D01*
X40857142Y-50261904D01*
X40761904Y-50214285D01*
X40523809Y-50214285D01*
X40428571Y-50261904D01*
X40380952Y-50309523D01*
X40333333Y-50404761D01*
X40333333Y-50595238D01*
X40380952Y-50690476D01*
X40428571Y-50738095D01*
X40523809Y-50785714D01*
X66333333Y-33402380D02*
X66000000Y-32926190D01*
X65761904Y-33402380D02*
X65761904Y-32402380D01*
X66142857Y-32402380D01*
X66238095Y-32450000D01*
X66285714Y-32497619D01*
X66333333Y-32592857D01*
X66333333Y-32735714D01*
X66285714Y-32830952D01*
X66238095Y-32878571D01*
X66142857Y-32926190D01*
X65761904Y-32926190D01*
X66666666Y-32402380D02*
X67333333Y-32402380D01*
X66904761Y-33402380D01*
X79738095Y-63952380D02*
X79738095Y-64761904D01*
X79785714Y-64857142D01*
X79833333Y-64904761D01*
X79928571Y-64952380D01*
X80119047Y-64952380D01*
X80214285Y-64904761D01*
X80261904Y-64857142D01*
X80309523Y-64761904D01*
X80309523Y-63952380D01*
X81309523Y-64952380D02*
X80738095Y-64952380D01*
X81023809Y-64952380D02*
X81023809Y-63952380D01*
X80928571Y-64095238D01*
X80833333Y-64190476D01*
X80738095Y-64238095D01*
X67238095Y-63952380D02*
X67238095Y-64761904D01*
X67285714Y-64857142D01*
X67333333Y-64904761D01*
X67428571Y-64952380D01*
X67619047Y-64952380D01*
X67714285Y-64904761D01*
X67761904Y-64857142D01*
X67809523Y-64761904D01*
X67809523Y-63952380D01*
X68238095Y-64047619D02*
X68285714Y-64000000D01*
X68380952Y-63952380D01*
X68619047Y-63952380D01*
X68714285Y-64000000D01*
X68761904Y-64047619D01*
X68809523Y-64142857D01*
X68809523Y-64238095D01*
X68761904Y-64380952D01*
X68190476Y-64952380D01*
X68809523Y-64952380D01*
M02*
