M48
; DRILL file {KiCad (5.1.2)-2} date 2020. 01. 06. 22:07:29
; FORMAT={-:-/ absolute / inch / decimal}
; #@! TF.CreationDate,2020-01-06T22:07:29+01:00
; #@! TF.GenerationSoftware,Kicad,Pcbnew,(5.1.2)-2
FMAT,2
INCH
T1C0.0354
T2C0.0394
T3C0.0551
T4C0.1378
%
G90
G05
T1
X2.4803Y-1.4173
X2.5787Y-1.4173
T2
X1.3189Y-1.4173
X1.3189Y-2.126
X1.883Y-1.9488
X1.9094Y-2.0276
X2.1063Y-2.0276
X2.1328Y-2.1063
X1.883Y-1.437
X1.9094Y-1.5157
X2.1063Y-1.5157
X2.1328Y-1.5945
X2.4181Y-2.6575
X2.5181Y-2.6575
X2.6181Y-2.6575
X2.9102Y-2.6575
X3.0102Y-2.6575
X3.1102Y-2.6575
T3
X1.063Y-1.4764
X1.063Y-1.6732
X1.063Y-1.8701
X1.063Y-2.0669
X2.4803Y-1.063
X2.6772Y-1.063
X2.874Y-1.063
X3.0709Y-1.063
T4
X3.3858Y-2.5984
X0.9449Y-0.9449
X3.3858Y-0.9449
X0.9449Y-2.5984
T0
M30
